<svg width="284" height="284" viewBox="0 0 284 284" fill="none" xmlns="http://www.w3.org/2000/svg">
<g clip-path="url(#clip0_158_1195)">
<path d="M283.5 0H0V283.5H283.5V0Z" fill="white"/>
<path d="M101.2 146.5C91.7 146.5 85.1 152.8 84.4 161.9C84.3 162.3 84.5 162.8 84.8 163.2C85.1 163.6 85.6 163.9 86.1 163.9H86.2C87.1 163.9 87.9 163.1 88 162.1C88.7 154.9 93.7 150 101.1 150C109.1 150 114.3 155.6 114.3 164.2C114.3 173.1 109 179.1 101.1 179.1C93.6 179.1 88.6 174.2 87.9 166.6C87.8 165.6 87 164.9 86.1 164.9H85.9C85.4 164.9 84.9 165.2 84.6 165.6C84.3 166 84.2 166.4 84.2 166.8C84.8 176.1 91.5 182.7 101.1 182.7C111.2 182.7 118 175.3 118 164.2C118.2 153.5 111.5 146.5 101.2 146.5Z" fill="#0000F0"/>
<path d="M128.8 147.2C127.8 147.2 127 148 127 149.1V181C127 182 127.8 182.9 128.8 182.9C129.8 182.9 130.6 182.1 130.6 181V149C130.6 148 129.8 147.2 128.8 147.2Z" fill="#0000F0"/>
<path d="M146.3 148.2C145.9 147.3 144.7 146.8 143.8 147.2L133.1 152C132.6 152.2 132.3 152.6 132.1 153C131.9 153.5 131.9 154 132.1 154.4C132.4 155.1 133.1 155.5 133.8 155.5C134.1 155.5 134.3 155.4 134.6 155.3L145.3 150.5C145.8 150.3 146.1 149.9 146.3 149.5C146.6 149.1 146.5 148.6 146.3 148.2Z" fill="#0000F0"/>
<path d="M52.8 154.3C51.8 154 50.7 154.6 50.5 155.5L44.8 172.6L44.1 175.3L43.3 172.5L35.2 148.4C35.1 147.6 34.3 147 33.4 147C33.2 147 33 147 32.9 147.1C32.4 147.2 32 147.5 31.8 148C31.6 148.4 31.5 149 31.7 149.4L42.4 181.1C42.6 181.9 43.3 182.4 44.1 182.4C45 182.4 45.6 181.9 45.9 181.1L54.1 156.5C54.3 155.6 53.7 154.6 52.8 154.3Z" fill="#0000F0"/>
<path d="M56.5 148.3C56.2 147.6 55.5 147.1 54.7 147.1C54.5 147.1 54.3 147.1 54.1 147.2C53.2 147.6 52.8 148.6 53.1 149.6L64.3 181.4C64.6 182.1 65.3 182.6 66.1 182.6C66.3 182.6 66.5 182.6 66.7 182.5C67.6 182.1 68 181.1 67.7 180.1L56.5 148.3Z" fill="#0000F0"/>
<path d="M78.3 148.1C78.1 147.6 77.7 147.3 77.2 147.2C76.3 146.9 75.2 147.5 74.9 148.4L66.7 173.7C66.4 174.7 67 175.8 67.9 176.1C68.1 176.2 68.2 176.2 68.4 176.2C69.2 176.2 70 175.7 70.2 174.9L78.4 149.6C78.6 149.1 78.5 148.6 78.3 148.1Z" fill="#0000F0"/>
<path d="M155.5 163.2C156.5 163.2 157.4 162.4 157.4 161.3V135.2C157.4 134.2 156.6 133.3 155.5 133.3C154.5 133.3 153.6 134.1 153.6 135.2V161.3C153.6 162.4 154.4 163.2 155.5 163.2Z" fill="#0000F0"/>
<path d="M157.6 163.2L154.3 166C153.9 166.3 153.6 166.9 153.6 167.4V180.2C153.6 181.2 154.4 182.1 155.5 182.1C156.5 182.1 157.4 181.3 157.4 180.2V168.3L160.1 166C160.9 165.3 161 164.2 160.3 163.4C159.6 162.7 158.4 162.6 157.6 163.2Z" fill="#0000F0"/>
<path d="M179.8 179.1L166.4 163.7L164.5 162.1V161.9L167.1 160.3L179 150.3C179.8 149.6 179.9 148.4 179.2 147.6C178.6 146.9 177.3 146.8 176.6 147.4L161.2 160.3C160.8 160.6 160.6 161.1 160.6 161.6C160.6 162.1 160.7 162.6 161 162.9L177 181.4C177.4 181.8 177.9 182 178.4 182C178.9 182 179.3 181.8 179.6 181.6C180.3 181.1 180.4 179.9 179.8 179.1Z" fill="#0000F0"/>
<path d="M203 217.2H206.7V242C206.7 242.9 207.6 243.8 208.5 243.8C209.5 243.8 210.4 242.9 210.4 242V215.4C210.4 214.4 209.6 213.6 208.5 213.6H203C202.1 213.6 201.2 214.4 201.2 215.4C201.2 216.3 202 217.2 203 217.2Z" fill="#0000F0"/>
<path d="M208.5 208.7C209.5 208.7 210.4 207.8 210.4 206.9V201.6C210.4 200.7 209.5 199.8 208.5 199.8C207.5 199.8 206.7 200.7 206.7 201.6V206.9C206.6 207.9 207.5 208.7 208.5 208.7Z" fill="#0000F0"/>
<path d="M224.8 220.1C227.3 217.8 231 216.5 234.8 216.5C239.6 216.5 243.2 218.4 244.7 221.7C245 222.4 245.7 222.8 246.4 222.8C246.7 222.8 246.9 222.7 247.2 222.6C247.6 222.4 248 222 248.1 221.6C248.3 221.1 248.3 220.6 248 220.2C245.8 215.6 241 213 234.8 213C230.1 213 225.5 214.7 222.4 217.5C222 217.8 221.8 218.3 221.8 218.8C221.8 219.3 221.9 219.7 222.2 220.1C222.9 220.7 224.1 220.8 224.8 220.1Z" fill="#0000F0"/>
<path d="M42.5 219.3C45.1 217.3 46.9 216.4 50.3 216.4C55.4 216.4 60.7 220 61.2 225.5C61.3 226.5 62 227.3 63 227.3C64 227.3 64.9 226.5 64.9 225.5C64.5 218.4 57.9 212.8 50.3 212.8C45.8 212.8 43.2 214.1 40.3 216.3C39.5 216.9 39.4 218 40 218.9C40.5 219.7 41.6 219.9 42.5 219.3Z" fill="#0000F0"/>
<path d="M108.4 212.4C109.4 212.4 110.3 211.6 110.3 210.6V201.7C110.3 200.7 109.5 199.8 108.4 199.8C107.4 199.8 106.6 200.6 106.6 201.7V210.6C106.5 211.6 107.4 212.4 108.4 212.4Z" fill="#0000F0"/>
<path d="M141.8 212.9C132.4 212.9 125.7 219.2 125 228.3C124.9 228.7 125.1 229.2 125.4 229.6C125.7 230 126.2 230.3 126.7 230.3H126.9C127.8 230.3 128.6 229.5 128.7 228.5C129.4 221.3 134.4 216.5 141.8 216.5C149.8 216.5 155 222.1 155 230.6C155 239.5 149.7 245.5 141.8 245.5C134.4 245.5 129.3 240.6 128.6 233C128.5 232 127.7 231.3 126.8 231.3H126.6C126.1 231.3 125.6 231.6 125.3 232C125 232.4 124.9 232.8 124.9 233.2C125.5 242.5 132.2 249 141.8 249C151.9 249 158.7 241.6 158.7 230.5C158.7 219.9 152.1 212.9 141.8 212.9Z" fill="#0000F0"/>
<path d="M119.6 244.9H115.6C111.9 244.9 110.2 244.3 110.2 240.7V215.4C110.2 214.4 109.4 213.5 108.3 213.5H101.1C100.1 213.5 99.3 214.3 99.3 215.3C99.3 216.3 100.1 217.1 101.1 217.1H106.5V240.7C106.5 247.1 110.1 248.5 115.6 248.5H119.6C120.6 248.5 121.4 247.7 121.4 246.7C121.4 245.7 120.6 244.9 119.6 244.9Z" fill="#0000F0"/>
<path d="M120 213.6H113.3C112.3 213.6 111.5 214.4 111.5 215.5C111.5 216.4 112.3 217.2 113.3 217.2H120C121 217.2 121.9 216.4 121.9 215.4C121.8 214.4 121 213.6 120 213.6Z" fill="#0000F0"/>
<path d="M192.8 228.4C191.8 228.4 190.9 229.2 190.9 230.2V247C190.9 248 191.7 248.9 192.8 248.9C193.8 248.9 194.6 248.1 194.6 247V230.3C194.7 229.3 193.8 228.4 192.8 228.4Z" fill="#0000F0"/>
<path d="M167.9 213.2C166.9 213.2 166.1 214 166.1 215.1V247C166.1 248 166.9 248.9 167.9 248.9C168.9 248.9 169.7 248.1 169.7 247V215.1C169.8 214.1 168.9 213.2 167.9 213.2Z" fill="#0000F0"/>
<path d="M246.7 224C245.7 224 244.8 224.8 244.8 225.9V235.8C244.4 245.1 232.8 245.1 232.8 245.1C227.8 245.1 225.2 242.3 225.2 239.6C225.2 235.5 227.2 233.5 231.3 232.6L242.4 230.3C242.9 230.2 243.3 229.9 243.6 229.5C243.9 229.1 244 228.6 243.9 228.1C243.7 227.3 242.9 226.6 242 226.6C241.9 226.6 241.8 226.6 241.7 226.6L230.3 229.1C224.6 230.4 221.5 234 221.5 239.6C221.5 244 225 248.7 232.8 248.7C232.8 248.7 237.3 249 241.7 246.5C242.3 246.2 242.9 245.8 243.6 245.2C243.8 245 244 244.9 244.2 244.7L244.9 243.5L244.8 244.7V247C244.8 248 245.6 248.9 246.7 248.9C247.7 248.9 248.5 248.1 248.5 247V225.9C248.6 224.8 247.8 224 246.7 224Z" fill="#0000F0"/>
<path d="M214.2 244.9H202.9C201.9 244.9 201.1 245.7 201.1 246.7C201.1 247.7 201.9 248.5 202.9 248.5H214.2C215.1 248.5 216 247.7 216 246.7C215.9 245.7 215.1 244.9 214.2 244.9Z" fill="#0000F0"/>
<path d="M181.1 213.6H179.5C179.2 213.6 178.9 213.7 178.7 213.8L171.7 217.5C171.2 217.7 170.9 218.1 170.8 218.6C170.6 219.1 170.7 219.6 170.9 220C171.3 220.8 172.3 221.2 173.4 220.7L180 217.1H181.2C187.4 217.1 191 220.2 191 225.3C191 226.3 191.8 227.2 192.9 227.2C193.9 227.2 194.7 226.4 194.7 225.3C194.7 218.1 189.5 213.6 181.1 213.6Z" fill="#0000F0"/>
<path d="M95.4999 240.6C95.2999 240.3 94.8999 240.1 94.5999 240C93.0999 239.6 92.4 240.9 92.2999 241.1C92.2999 241.1 92.2999 241.1 92.2999 241.2C91.7999 242.2 90.2999 244.3 87.0999 245.1C86.0999 245.3 84.8999 245.5 83.4999 245.5C79.0999 245.5 74.4999 243.4 73.3999 240.9C73.0999 240.2 72.3999 239.8 71.6999 239.8C71.3999 239.8 71.1999 239.9 70.9999 240C70.8999 240 70.7999 240.1 70.6999 240.2C69.6999 240.9 69.8999 241.9 70.0999 242.4C71.7999 246.1 77.7999 249.2 83.4999 249.2C91.2999 249.2 94.8999 245.6 95.8999 242.4C95.9999 242.1 96.0999 241.7 95.8999 241.2C95.6999 241 95.5999 240.8 95.4999 240.6Z" fill="#0000F0"/>
<path d="M83.9999 212.9C77.6999 212.9 71.7 216.4 71.3 220.4C71.2 220.9 71.2999 221.3 71.5999 221.7C71.8999 222.1 72.3 222.2 72.8 222.3H73.0999C74.0999 222.3 74.4999 221.5 74.9999 220.7C75.8999 219 78.7999 216.5 83.9999 216.5C87.8999 216.5 91.3 217.9 92.8 220.2C93.4 221.1 94.6 221.3 95.4 220.8C96.1999 220.2 96.5 219.1 95.9 218.3C93.7999 214.9 89.1999 212.9 83.9999 212.9Z" fill="#0000F0"/>
<path d="M60.8 241.1C58.2 243.9 54.4 245.5 50.4 245.5C43.8 245.5 36.7 240.9 36.7 230.9C36.7 228 37.5 224.1 39.4 222.2C39.7 221.9 40 221.4 40 221C40 220.5 39.8 220 39.5 219.6C38.9 218.9 37.6 218.9 36.9 219.6C34.3 222.2 33 227.2 33 230.9C33 243.4 42 249.1 50.4 249.1C55.4 249.1 60.2 247.1 63.5 243.6C64.2 242.8 64.1 241.7 63.4 240.9C62.8 240.4 61.6 240.4 60.8 241.1Z" fill="#0000F0"/>
<path d="M85.4999 230.1L81.4999 228.7C79.9999 228.1 75.6999 226.5 74.8999 224.6C74.5999 223.8 73.9999 223.2 73.1999 223.2C72.9999 223.2 72.8999 223.2 72.6999 223.3C72.1999 223.4 71.7999 223.7 71.5999 224.2C71.3999 224.6 71.2999 225.1 71.3999 225.6C72.0999 228.4 76.5999 230.9 80.1999 232.2L84.1999 233.6C84.8999 233.9 85.7 234.1 86.3 234.4C89.4 235.4 91.6999 236.3 92.4999 238.1C92.7999 238.8 93.5 239.2 94.2999 239.2C94.5 239.2 94.7999 239.2 94.9999 239.1C95.8999 238.7 96.3999 237.6 95.9999 236.6C94.7999 233.5 90.6999 232 85.4999 230.1Z" fill="#0000F0"/>
<path d="M63.1 228.3H39.8C38.8 228.3 37.9 229.1 37.9 230.1C37.9 231.1 38.7 231.9 39.8 231.9H63.1C64.1 231.9 64.9 231.1 64.9 230.1C65 229.1 64.1 228.3 63.1 228.3Z" fill="#0000F0"/>
</g>
<defs>
<clipPath id="clip0_158_1195">
<rect width="283.5" height="283.5" fill="white"/>
</clipPath>
</defs>
</svg>
