<svg width="352" height="239" viewBox="0 0 352 239" fill="none" xmlns="http://www.w3.org/2000/svg">
<path d="M324.374 76.4232L297.392 35.9876C282.417 13.4785 257.19 0 230.208 0H149.398C139.145 0 128.892 2.02178 119.314 5.79576L51.8597 32.7528C29.1951 41.7834 11.9269 60.5185 4.64189 83.8364C-2.64314 107.154 0.999377 132.359 14.6251 152.577L41.6067 193.012C56.5814 215.521 81.8092 229 108.926 229H243.699C274.323 229 302.384 211.748 316.009 184.386L329.5 157.429C342.451 131.416 340.563 100.55 324.374 76.4232Z" fill="#C5278C" fill-opacity="0.75"/>
<path d="M337.374 86.4232L310.392 45.9876C295.417 23.4785 270.19 10 243.208 10H162.398C152.145 10 141.892 12.0218 132.314 15.7958L64.8597 42.7528C42.1951 51.7834 24.9269 70.5185 17.6419 93.8364C10.3569 117.154 13.9994 142.359 27.6251 162.577L54.6067 203.012C69.5814 225.521 94.8092 239 121.926 239H256.699C287.323 239 315.384 221.748 329.009 194.386L342.5 167.429C355.451 141.416 353.563 110.55 337.374 86.4232Z" fill="#000096" fill-opacity="0.75"/>
</svg>
