<svg id="Layer_1" data-name="Layer 1" xmlns="http://www.w3.org/2000/svg" viewBox="0 0 1080 1080"><defs><style>.cls-1{fill:#fff;fill-rule:evenodd;}</style></defs><title>myth-busters__bubble_3</title><path class="cls-1" d="M1047.52,397.47c.79-2.11.66-3.8-.33-4.88-1.67-23.17-5-49.78-11.1-71a6.7,6.7,0,0,0,1.78-6.83c-16.22-40.45-49.22-107.84-100.72-115.61a169.2,169.2,0,0,0-26-12.65c-93.1-36-626.2-7.26-757.26,8.44a7,7,0,0,0-.69-2.18,6.74,6.74,0,0,0-9.15-2.66c-57.71,28.43-86.93,45.86-100.32,92.4a6.74,6.74,0,0,0-5.48,5c-14.57,77.38-17.08,157-.09,226.72-.22,7,.53,11.17,2.78,10.41C67.79,621.9,134.57,698,262.58,718.19a1.08,1.08,0,0,0,.81.15c.63.09,1.2.23,1.82.32,32.1,4.84,85.47,7.14,140.9,7.25-.88,4.54.33,6.86,5.09,5,.22-.08,2.95-2,7-5,28.7-.1,57.54-.78,83.93-2a1.65,1.65,0,0,0,.21,0c16.93-.77,32.8-1.76,47-3-.37,2,.17,2.29,2.16-.18,4.42-.39,8.69-.79,12.74-1.21-13.29,27.86-20.74,43.27-22.8,51.62a6.68,6.68,0,0,0-.54,8c14.88,16.86,25.39,21,40.33,22.62.86,1,1.41,1,1.79.19,5.94.55,12.61.79,20.5,1.27-17.42,30.87-48,87.07-53.74,110.74a6.69,6.69,0,0,0-6.87,10.45c2.52,3.28,15.81,22.87,20.73,24.8,11.61-5.83,54.58-31.45,98.93-59.75l.83-.14c0-.1,0-.26,0-.38,57.16-36.5,116.3-77.25,113.35-85.63-1.18-3.35-5.39-9.41-10.33-15.89-.4-4.34-.86-9.39-1.24-13.6,3.59,10.39,2.73,17.61,15,28.76-12.22-13.79-13.44-35.46-16.72-34.5-.77,2.94-.35,9.09.33,15.9-2-2.61-4.13-5.2-6.15-7.68-.13-.64-.23-1.1-.26-1.26-.55-2.55-1.07-4.63-1.53-6.3.17-.16.4-.36.54-.5,10.45-10.53-25.51-19.63-51.52-25.77,36.63-24,50.85-34.08,54.7-41.58C882,677.42,993.61,635.36,1033.36,525.77c1.28-.51,1.69-1.34.85-2.52,1.37-3.91,2.65-7.89,3.84-12,6.68-1.92,9.89-4.14,1.67-6.11a275,275,0,0,0,8.09-49.15,2.77,2.77,0,0,0,.09-1.67c.32-4.51.59-9.07.73-13.75.23-7.93.1-24.07-1.11-43.13ZM287.9,204.86a3.42,3.42,0,0,1,4.29,2.24c-.31,3.07.13,1.9-.78,3.68-.38-.39-.5-1-1.33-1,.09.84,0,.24.74,1.66-2.12,4-3.3-.32-5.17-2.3a3.41,3.41,0,0,1,2.25-4.29Zm-16.11.79a3.43,3.43,0,0,1,3.42,3.43c-1.5,2.5-.46,1.29-3.42,3.33-3-2-1.92-.83-3.43-3.33a3.44,3.44,0,0,1,3.43-3.43ZM248,207.08a3.43,3.43,0,0,1,3.43,3.42c-2.1,6.77-1.82,2.82-3,4,.29.54.05.2,1,.78l.08,1.08c-3.08,3.15-4.62-4.64-4.93-5.84a3.42,3.42,0,0,1,3.42-3.42Zm-19,4.28a3.42,3.42,0,0,1,3.42,3.43c-1.38,5.71-1.64,4.49-2.94,7.61-1.59,1.92-3.88-7.49-3.91-7.61a3.43,3.43,0,0,1,3.43-3.43Zm-22.2,1.45a3.4,3.4,0,0,1,3.72,3.09c-.14,1.25-1.64,9.73-1.65,9.85.27.29.08.11.63.45.33,6.42-4.94-5.44-5.8-9.68a3.41,3.41,0,0,1,3.1-3.71Zm-16,21.14.6-.13c.55,1.8-2.72,8.69-6.68-12.12a3.42,3.42,0,1,1,6.69-1.45c0,.87-.49,12.91-.61,13.7Zm-.79.17h0l0-.05c.2-.23.47-.16.73-.1a6.52,6.52,0,0,1-.71.15Zm-9.52,7a13.5,13.5,0,0,0,1.38-.65c1.06,3.32-3.46,7.7-10-15.74a3.44,3.44,0,0,1,2.39-4.21,3.4,3.4,0,0,1,4.21,2.39c.57,5.2,2.1,13.53,2.41,18-.17.07-.23,0-.44.17v0Zm-22.8-14.34c.6,1.7,5.79,20.1,6.11,20.34,2.54,8.3-12-16.76-12-16.76a3.43,3.43,0,0,1,5.86-3.58Zm-6.27,34.15.66,1.3c1.79,10-16-19.85-16.2-20.13a3.43,3.43,0,0,1,5.41-4.21c3,5.61,8.53,16.25,10,23.26l.14-.22Zm-11.47,13.57.53-.73c3.36,5.32-2.64,3.93-16.26-20.6a3.42,3.42,0,1,1,5.88-3.51c.43,1,8.85,22.26,9.85,24.84Zm-8,10.22.84,1c1.83,3.17,1.06,3.14-1.11,1a.41.41,0,0,0-.2.13c0,.12-.05.21-.07.27h0a.3.3,0,0,1,.09-.27l.07-.26c-4-4.05-12.6-14.91-19-26.35a3.42,3.42,0,1,1,6.42-2.37c.81,1.84,10.38,22.37,12.79,27.57.07-.27.12-.53.17-.69Zm-7.55,15.36.42-.61c2.24,3.37,1.62,3.3-.54,1.21l0,0-.13.26h0a.34.34,0,0,1,.15-.25l0-.05c-4.76-4.61-16.86-18.81-22.48-27.73a3.43,3.43,0,0,1,6.13-3.07c.9,1.78,14.52,26.37,16.5,30.22Zm-8.54,12.62-.08-1.34c5.27,6.07,4.27,6,.42,2.89a.88.88,0,0,0-.25.49v-.7a212,212,0,0,1-24.44-24.6,3.43,3.43,0,1,1,5.74-3.74c5.38,8.08,12.31,19.31,18.62,27ZM85.14,296a3.44,3.44,0,0,1,4.62,1.45c1.16,2.07,11.36,18.46,11.71,20.14-1.84,2.9-17.27-16.3-17.79-17A3.41,3.41,0,0,1,85.14,296Zm8.94,39.93v0c1.81,2.26,1.6,2.51.25,1.6l-1,.46a8.16,8.16,0,0,1,.2-1.05C88.64,333.23,76,321.62,76,321.62a3.42,3.42,0,1,1,5.66-3.85c8.56,12.13,4.73,6.53,12.39,18.12ZM984.73,461.47c-1.36,1.8-6.73-3.54-7.77-4.36a3.42,3.42,0,0,1,5.07-4.6c1.36,2.65,3,5.86,2.7,9Zm-9.52,27.38c-2,2-11.11-10.7-12.36-12.06a3.42,3.42,0,0,1,4.74-4.94c2.15,3.5,7.61,16.73,7.62,16.74v.26Zm-8.56,20.2c2.06,2.49.91,11.73-16.38-14.62a3.43,3.43,0,0,1,6.1-3.12c2.76,5.83,7.38,13.54,9.71,18.62a4.22,4.22,0,0,1,.57-.88Zm-7.22,22.62c4.12,5.88,3.05,12.1-20.52-21a3.43,3.43,0,0,1,6-3.32c4,6.9,10.67,17.07,14.52,24.28Zm-7.85,18.68c-6.66-6.84-22.34-25.36-22.36-25.39a3.43,3.43,0,0,1,5.39-4.23c2.66,4.29,15.18,23.46,18,28.94l.56.54c2.39,3.69,1.42,3.15-1.18.53a1.51,1.51,0,0,0-.27.54c-.09-.63-.09-.67-.12-.93Zm-11.1,11.51c2.95,2.91-4.69,2.95-21.76-25a3.43,3.43,0,1,1,6.42-2.39c3.19,6.54,10.52,22,14.94,27.71-.11.1-.18.08-.21.22h0c.27-.25.15-.21.56-.58Zm-8.56,20.93c7.9,21.78-27-31-28.44-33.56a3.42,3.42,0,1,1,6.44-2.33c2,4.1,18.37,32.58,21.46,37.94l.54-2.05Zm-19.51-1.42c7.92,11.49-16.14-13.25-20-18.68a3.42,3.42,0,0,1,5.84-3.57c3.82,6.94,8.72,16.53,13.62,22.76,0,.12-.16.09-.18.25s0,0,0,0c.39-.4.14-.14.73-.78ZM901,591.84c6.81,13.92-21.54-23-25.42-29.38a3.43,3.43,0,1,1,6.12-3.1c4.86,9.79,11.82,24.9,18.56,33.49,0,.07-.11.06-.09.15s.83-1.16.83-1.16Zm-13.56,8c3.12,11.82-23.15-32.39-24.47-35.17a3.42,3.42,0,1,1,6.6-1.82c5.16,13.32,12.83,26.59,17,37.08.09,0,.56-.42.65-.48l.24.39ZM876.73,609c4.72,7.44-14.4-12-24.63-30.25a3.42,3.42,0,1,1,6.44-2.32c1.09,2.38,17.64,32.32,17.46,33.06v0c.08.11.62-.44.74-.52Zm-16.18,4.75C846,605,843.36,600.66,837.67,584.79a3.42,3.42,0,0,1,6.75-1.14c3.85,15.46,6.66,17.63,16.13,30.07Zm-17.72,6.89,0,0,0,0Zm0,0-.13.15h0a.24.24,0,0,1,.13-.15,176,176,0,0,1-18.41-30.25,3.43,3.43,0,1,1,6.61-1.81c3.5,10.06,7.39,22.23,12,31.88l.41-.53c1.56,2.87,1.07,2.75-.58.72Zm-12.26,5.47c-10.92-12.57-5.83-5.74-15.09-20.64a3.42,3.42,0,0,1,6.38-2.49c6.45,15.41,3.56,7.7,8.71,23.13Zm-10-29.5c-3-2.66-2-1.17-3.43-4.28a3.43,3.43,0,1,1,6.85,0c-1.45,3.11-.41,1.62-3.42,4.28Zm-12.28,3.25c3.48,14.52,8.53,21.14,12.28,33.86-9.93-9.84-14.9-20.7-19.13-33.7a3.43,3.43,0,0,1,6.85-.16ZM810.82,640l0,0h0c-2-.49-11.5-5.31-21.23-30.29a3.43,3.43,0,0,1,6.84-.52c5.13,17.39,9.6,19.22,14.53,30.62-.07.1-.13.07-.14.19h.06l.21-.11c.24.11.15.19-.21.11Zm-24-9.64c-7.52-4.09-8.65-6.65-11.91-14.5a3.42,3.42,0,1,1,6.69-1.44c1.32,7,3,9.41,5.22,15.94Zm-15.22-3.81c-2.72,3.48-6.92-4.73-7.89-6.21a3.42,3.42,0,1,1,6.26-2.78c.5,2.63.64,6.85,1.63,9Zm267.69-151.71h0c-2-.06-7.11.76-16.9,2.34.09-.57.16-1.17.25-1.74a159.4,159.4,0,0,0,18.43-12c-.5,3.88-1.13,7.63-1.78,11.37Zm-8.77,35.42h0c-7.89,1.09-13.15,1.88-16.52,2.51.61-1.94,1.23-3.89,1.8-5.86,4.94,0,10.7,0,15.71.48-.31,1-.67,1.9-1,2.87Zm-110.13,126h0a100.17,100.17,0,0,1-.34-10.53c0-.76,0-1.42,0-2.11,1.87-1,3.66-2,5.48-3q.28,4,.66,6.92c-.78,2.31-1.63,4.76-2.44,6.82-1.11.62-2.18,1.26-3.32,1.88ZM908,642.59h0a118.71,118.71,0,0,1-.95-12.79c1.94-.86,3.81-1.8,5.71-2.7-1.34,5.68-2.66,11.5-3.72,14.95l-1,.54Zm-158.21,22.2h0a6.56,6.56,0,0,0-.63-2.07c3-.2,6.06-.43,9-.67.21,6.55,1,20.89,4.7,24.57-1.68.32-3.33.65-5,1-2.52-5.18-6.11-11.93-8.1-22.78Zm-11.49,8.08h0l-1.2,1.36c-.24-.69-.51-1.42-.78-2.2l1.31-1.34c.23.77.45,1.46.67,2.18Zm1.11,32.34h0c-4.68-16-2.88-10-6.76-22.67l.81-1.15c4.54,9.09,2.55,5.53,12.3,18.68-1.61,1.24-3.7,2.89-6.35,5.14ZM724.79,719h0a.55.55,0,0,1-.1.11l.09-.11-.08-.05a.25.25,0,0,0-.06.21c-1.74,1.76-3.58,3.65-5.53,5.72-2.41-5.83-4.53-10.22-6.32-15.68,1.06-1.3,2.13-2.63,3.18-3.95,4.46,9.11,7.37,12.65,8.73,13.7a.62.62,0,0,1,.17-.11l-.09.16Zm-18.91-11.56h0c.2.51.41,1,.63,1.54l-2.65,3c-.21-.45-.44-.9-.67-1.37l2.69-3.17Zm-7,8.27h0c.25.37.5.76.77,1.14l-1,1.14-.73-1.13,1-1.15Zm-13.76,15.91h0c.57-.65,1.07-1.24,1.64-1.88.29.27.6.54.92.82l-3.2,3.72-2-1.14a6.67,6.67,0,0,0,2.63-1.52Zm5.91-6.8h0l2.66-3.06.83.94-2.69,3.09-.8-1Zm6.8,1.55h0c1.94,2.07,2.69,2.31,10.52,8.47l0,0c-5.2-9.54-5-9.44-6.86-12.37.39-.43.82-.85,1.21-1.28,3.57,4.76,7.76,9.31,10.94,9.62-2.51,2.73-5.19,5.74-8,9-4-4-7-6.56-10.63-10.39,1-1,1.87-2,2.82-3Zm8.6-9.49h0c.82-1,1.67-1.9,2.48-2.87,2.54,4.95,5.82,9.49,9.8,11.34-1.44,1.52-3,3.16-4.52,4.86-3.11-5.09-5.4-8.9-7.76-13.33Zm4.83-13.24h0c-.15-.58-.29-1.12-.43-1.72a2.25,2.25,0,0,0,0-.22l2.31-2.75c.27.59.53,1.15.78,1.72l-2.61,3Zm6.39-10.13h0c.77-.9,1.51-1.78,2.23-2.64.3.61.62,1.24,1,1.9l-2.51,2.85c-.26-.81-.48-1.5-.68-2.11Zm6.68-7.92h0l2-2.39c.32.63.68,1.3,1.09,2.06l-2.3,2.61c-.36-1-.64-1.77-.83-2.28Zm75.18-32.85h0c-.24.68-.47,1.41-.71,2.16-2.45.4-4.88.81-7.35,1.2,0-.65,0-1.3,0-1.91,2.52-.44,5.22-.92,8.06-1.45Zm17.06-3.44h0c-.4.84-.81,1.7-1.23,2.63-2.74.52-5.46,1.05-8.25,1.55-.1-.77-.2-1.46-.3-2.15,3.08-.6,6.36-1.29,9.78-2ZM845,642.59h0c-.33.94-.69,2-1.06,3.09l-3.79.94c.06-1,.1-2,.12-2.87,1.59-.4,3.08-.76,4.73-1.16Zm159.53-336.18h0c-.19.13-.35.25-.54.4l-.62-1.34c.1-.63.2-1.26.31-1.89.28.94.57,1.88.85,2.83ZM1019.34,493h0c4.14-.47,11-2.14,14.43-1.35-2.3,1.67-8.5,3.8-9.28,4.09-2.4.9-4.49,1.71-6.41,2.47.43-1.72.86-3.45,1.26-5.21Zm2.73-13.68h0c5.46-1.11,11.17-2.42,13.34-2.66-2.49,2.89-6.33,5.16-9.32,7.18-2.43,1.64-4.24,3-5.73,4.09.58-2.85,1.2-5.66,1.71-8.61Zm-12.76-49.18h0c-.08-6-.28-12.1-.57-18.33a107.49,107.49,0,0,0,10.29-5c.07,2.05.2,4.15.25,6.17-13.2,6.5-11,14,.07,9.62v1.56c-3.67,2.12-7.16,4.16-10,6Zm21.84-68h0c0,1.1,0,2.06,0,3.09l-.69.79c0-1.36,0-2.57,0-3.7l.63-.18Zm.59,17h0c-.33,0-.72.13-1.12.23,0-1.2,0-2.44,0-3.77,0-3-.09-5.5-.11-7.64l.69-.65c.06,4.48.25,8.39.57,11.83ZM1007.57,392h0a3.44,3.44,0,0,0,.56-.11,9,9,0,0,0,1.71,3.79c2.19,1.92,3.66.67,4.62-2.58l.5,0-.18-1.21c.18-.85.35-1.81.49-2.84l2.74-1.3c.13,1.74.26,3.47.37,5.22.09,1.27.1,2.46.17,3.71-.69.68-1.33,1.3-1.82,1.75-3.7,3.61-6.34,6.37-8.2,8.48q-.39-7.32-1-14.89Zm8.21-27.94h0q.87,7.55,1.55,15.17c-.53.49-1,.94-1.43,1.34.17-5.08.08-10.83-.13-16.52Zm2,20.5h0c-.71.35-1.4.67-2.16,1.05.08-1,.15-2,.2-3.09.53-.61,1.08-1.19,1.63-1.78.1,1.27.23,2.55.33,3.82Zm7.68.41h0c0-.26,0-.52,0-.79l.62-.29c0,1.05,0,2.05,0,3-.17-.57-.35-1.26-.53-1.88Zm-6.74,15.51h0c0,.56.06,1.11.08,1.66l-3.77,2.28c1.15-1.25,2.41-2.57,3.69-3.94Zm7.39-3.52h0c.11.17.23.31.34.45l-.32.2c0-.22,0-.43,0-.65Zm-.93-15.69h0q-.29-3.84-.63-7.65l1.7-1.61c-.09,3.13-.14,6.14-.18,8.91l-.89.35Zm1.11-10.77h0c-.61.62-1.22,1.24-1.85,1.86-.25-2.68-.51-5.36-.79-8l2.94-.84c-.13,2.34-.22,4.68-.3,7Zm-18.84,18.69h0l-.11.13c0-.31-.05-.63-.07-.94.05.29.11.53.18.81Zm26.28,24.09h0a29.64,29.64,0,0,1,3.91-.58,123.77,123.77,0,0,1-11,7.18v-1.24a68.49,68.49,0,0,0,7.08-5.36Zm-5.38,17.64h0c-.64.94-1.28,1.87-1.89,2.8,0-.66.07-1.29.09-2l1.8-.84Zm-9.53,14.48h0a10.39,10.39,0,0,1-1.23,0c-.45,0,.22-1.06,1.32-2.45,0,.8,0,1.63-.09,2.42Zm6.95,2.77h0a83.82,83.82,0,0,0,10.12-6.54c2.49.87-4.11,6.6-10.63,11.93.15-1.81.37-3.54.51-5.39Zm-.59,6.21h0c11.37-10.35,13.76-13.69,12-14a3.42,3.42,0,0,0-5-4.44l-.91.69c8.85-13.62,15.78-19.06-.79-12.77,3.68-2.67,7.16-5.37,9.92-7.8.72,3.23,1.4,6.82,2,11.07a8.45,8.45,0,0,1-1.49-3.69c-.7,2.59,5.52,14.19.2-6.89-.08-.32-.14-.61-.23-.92,1.11-1,2.08-1.93,2.89-2.8a353.69,353.69,0,0,1-1.42,39c-5.17-.49-11.57,2.39-17.35,5.18.08-.86.17-1.72.24-2.6Zm15.24-47.46h0c1-1,1.93-2.05,2.93-3.16,0,1,.1,2.06.13,3.08a16.41,16.41,0,0,0-3.06.08Zm2.59-11.21h0c-.31,1.58-2.26,3.93-5.07,6.56-.31-1.72-.59-3.39-.84-5,2.77-1.28,4.89-2,5.9-1.87,0,.1,0,.2,0,.3Zm-6.11,7.53h0c-2.15,1.92-4.68,3.94-7.29,5.89-1.09.3-2,.63-3,.95-.06-2.36-.19-4.83-.28-7.25,3.2-1.73,6.33-3.4,9-4.73.5,1.71,1,3.42,1.54,5.14Zm-7.38-7.57h0a45.34,45.34,0,0,0,.92-8.05c.74-.91,1.41-1.78,2-2.58.47,3.1,1,5.84,1.68,8.4-1.43.6-3,1.36-4.59,2.23Zm1-33.92h0a45,45,0,0,1,.79-7.05c-.09,2.44-.14,4.7-.17,6.86l-.62.19Zm-3.92,1.4h0l-3,1.14c-.46-4.27-1-8.53-1.54-12.76,1.91-1.18,4-2.47,6.18-3.89a120.67,120.67,0,0,0-1.67,15.51Zm-9.77-41.42h0c2.41-2.14,4.91-4.26,7.14-5.86.23.66.46,1.3.69,2-2,2.81-4.24,5.6-5.12,6.67l-1.69,2.05c-.32-1.61-.67-3.22-1-4.83Zm5.11-11.6h0a33.11,33.11,0,0,0-4.62,3.32c1.23-2.6,2.33-5,3.26-7.18.46,1.27.91,2.54,1.36,3.86Zm-7.18-.77h0c-.23.41-.41.78-.63,1.18-.49-1.89-1-3.77-1.52-5.63a15.16,15.16,0,0,1,5.63-3.24c-.52,2.44-2.81,6.46-3.48,7.69Zm-8.88,1.94h0l-.06-.17h0c0,.07,0,.13,0,.18Zm-5.85-18.57h0c-.11,1.78-.21,3.56-.4,5.34-1.22-2.32-2.47-4.61-3.73-6.86.51-1,1.19-2.39,2.08-4,.71,1.82,1.38,3.67,2,5.5Zm-4.42-6.84h0c-.91-3-2.46-8.09-4.27-13.78q2.86,5.91,5.38,12.05c-.37.57-.71,1.06-1.11,1.73Zm-10.69-25.75h0c3.27,10.54,5.3,18.13,6.62,23.33C985,271.84,979.43,261.05,979,250.73c2.09,3.07,4.09,6.2,6,9.41Zm14.27,41.73h0c-.15,1.13-.31,2.27-.48,3.39-1.8,12.4,1.28,11.16,5.92,7,1.3,2.63,2.45,5.23,3.49,7.8.13.52.27,1,.39,1.57-.25.53-.49,1.07-.7,1.53l-.45.51.27-.1c-3,7-1.3,6.85,2.24,4.14.31,1.45.62,2.91.91,4.36a3.65,3.65,0,0,0-.55-.08,3.44,3.44,0,0,0-3.26,3.59l.18,4.3c-1.9,2.45-3.38,4.41-4.51,6-8.57-55.59-29.52-108.9-71-139.31a144.7,144.7,0,0,1,44,39.57c-1.33,15.08,12.39,35.64,23.52,55.75Zm6.84,47h0a81.12,81.12,0,0,0-.84,8.82c-.56,1.14-.57,1.81-.07,2.06,0,1.58-.06,3.19,0,4.8-.5-4.74-1.09-9.49-1.76-14.22.79-.4,1.71-.9,2.72-1.46Zm3.27,90h0c3-1,6.46-2.36,9.9-3.83-.06,2.23-.15,4.43-.25,6.62-2.75,2.93-3.72,4.8-.16,4.29-.26,4.71-.65,9.27-1.08,13.78l-1.26,1.09c-.31.12-.62.22-.93.32a.69.69,0,0,1,.45.11c-2,1.89-2.24,2.63,1.12,1.21l.4-.15c-.52,4.87-1.15,9.6-1.86,14.23-8.81,4.47-6.34,4.93-.6,4.07-1.22,7.23-2.76,14.09-4.47,20.74-9,4.11-7.32,5.17-1.4,5.45-.72,2.56-1.53,5-2.33,7.5-2.49-1.22-4.55-2.29-5.73-3,5.58-21.54,8-45.64,8.2-72.42Zm-8.21,72.47h0c.14.15.24.3.43.55l0,0-.48-.34c0-.08,0-.16.07-.25Zm-1.32,4.71h0a27.07,27.07,0,0,0,5.22,3.83v0q-.59,1.67-1.2,3.3a13.36,13.36,0,0,0-5.28-2.77c.45-1.44.83-2.92,1.25-4.38Zm10,8.83h0a54.2,54.2,0,0,1,5.72,7.38,54.31,54.31,0,0,1-6.68-5c.31-.8.66-1.57,1-2.37Zm-12.35,31.78h0c-.5-1-1-1.95-1.53-2.95l.84-1.43c.23,1.52.47,3,.69,4.38Zm-7.57,19.73h0c-.86-2.73-1.62-6.13-2.38-9.64,1-1.39,1.94-2.85,2.91-4.29a120.49,120.49,0,0,1-.53,13.93Zm6.91-50.72h0c.11.36.19.72.33,1.08a1.18,1.18,0,0,0-.7,0c.13-.37.25-.73.37-1.1Zm-1.35,16.63h0c-.86,1.69-1.72,3.38-2.63,5a50.08,50.08,0,0,1-2.37-5.83c1.6-3.48,3.11-7,4.5-10.65a69.6,69.6,0,0,0,.5,11.44Zm-7.69,4.87h0c.26.64.54,1.3.82,2a38.71,38.71,0,0,1,.82,4q-1.75,2.94-3.6,5.76c-.46-2-.94-3.89-1.44-5.61,1.17-2,2.32-4.1,3.4-6.2Zm-9.3,15.75h0c.15,1.78.35,3.66.57,5.61-.93,1.23-1.9,2.4-2.87,3.6-.18-.48-.37-1-.54-1.43,0-1,0-1.8.1-2.48l-1.11.09,0,0c1.31-1.77,2.64-3.53,3.87-5.35Zm-8.71,16.66h0c-.23.27-.49.53-.74.8-.23-1.5-.47-2.93-.7-4.26l1.53-1.83c0,1.68-.06,3.44-.09,5.29Zm-19.16,17.95h0c-1.87,1.51-3.74,3-5.67,4.42-.19-.76-.37-1.49-.55-2.15l0-.13,0,.08c-.09-.35-.17-.58-.25-.9,2.68-2,5.25-4.13,7.75-6.27-.44,1.61-.86,3.27-1.27,4.95Zm-1.95,8.37h0c-.48,2.24-.94,4.4-1.35,6.36-.36-1.68-.71-3.2-1-4.64.8-.57,1.6-1.14,2.38-1.72Zm-12.06,2h0c-2,1.35-4.16,2.62-6.26,3.89a3.27,3.27,0,0,0-1.64-.51,3.43,3.43,0,0,0-3.5,3.34c0,.1,0,.18,0,.27-1.76,1-3.59,2-5.39,2.94-.09-1.23-.18-2.28-.3-3.14a205.51,205.51,0,0,0,18.19-11.16c-.35,1.36-.72,2.83-1.11,4.37Zm-2.11,7.57h0c-.63,2.11-1.33,4.28-2.12,6.5-.12-1.79-.18-3.52-.24-5,.8-.47,1.57-1,2.36-1.48Zm-16.47.07h0c.06.89.12,2,.17,3.17-.6.32-1.16.65-1.77,1,.38-1.38.76-2.68,1.14-3.87.16-.09.3-.18.46-.26Zm-3.59,5.16h0c-2.52,1.27-5.1,2.47-7.7,3.68-.09-1-.22-2-.36-3,3.14-1.47,6.15-3,9.12-4.53-.34,1.18-.7,2.48-1.06,3.87Zm-10.26,4.9h0l-.9.4c.22-1.06.45-2.13.68-3.28.07,1,.14,1.93.22,2.88Zm-4.32,1.83h0c-2.09.9-4.19,1.8-6.34,2.66-.1-1.11-.2-2.13-.31-3,2.47-1,4.88-2,7.25-3.08-.2,1.11-.4,2.27-.6,3.45Zm-.94,5.81h0c-.92,5.53-2,10.58-3.7,12.19-.75-1.24-1-4.82-1-5.82-.08-1.57-.17-3-.26-4.37,1.7-.64,3.33-1.32,5-2Zm-8-5.28h0l0,0c.15,1,.28,2,.42,3-.52.21-1.06.39-1.59.58l.26-.76s.35-1.32.86-2.83Zm-4.5,4.84h0c-2,.74-4,1.5-6,2.21,0-1.16-.08-2.16-.12-3.06,2.39-.85,4.76-1.71,7.08-2.6-.31,1.1-.62,2.25-.95,3.45Zm-6.31,17.67h0c.18-4.09.27-7.51.3-10.44l4.45-1.52A115.16,115.16,0,0,1,880,653c0-.75,0-1.57.07-2.58Zm-6.52-13.18h0q-5.58,1.82-11.33,3.51c-.11-1-.22-2-.32-2.88q6.61-2,12.89-4.07c-.4,1.07-.82,2.22-1.24,3.44Zm-14.11,4.3h0l-.23.06c0-.18.11-.35.17-.54,0,.16,0,.32.06.48Zm-4.21,1.19h0c-1.47.41-2.92.82-4.41,1.21-.06-1-.11-2-.17-2.91,1.84-.49,3.7-1,5.51-1.49-.3,1-.6,2.08-.93,3.19Zm-1.45,4.86h0c-.7,2.27-1.47,4.62-2.32,7-.16-2.28-.28-4.36-.4-6.33.9-.21,1.83-.4,2.72-.63Zm-13.9,3.2h0l2.53-.56c-.87,2.65-1.84,5.61-2.95,8.94,0-2.64.22-5.55.42-8.38ZM829.6,649h0l-3.63.79c-.1-.93-.22-1.77-.36-2.53q2.52-.57,5.15-1.2c-.39,1-.78,1.93-1.16,2.94Zm-38.24,9.75h0l6.38-.82c-1.76,5.45-3.88,12-6.51,19.06-.37-6,0-12.51.13-18.24Zm36.72-5.61h0c-.57,1.62-1.12,3.26-1.65,4.86,0-1.65-.08-3.12-.15-4.5l1.8-.36Zm-14.37,2.47h0c-1.78,4.41-3.52,9.37-5,14.2-.45-5.31-.87-9.62-1.28-13.22,2.12-.32,4.22-.64,6.3-1Zm-33.94,2.21h0l-3.46.5c0-.69,0-1.28,0-1.77l4.31-.65c-.29.63-.57,1.27-.86,1.92Zm-1,2.39h0c-.83,2-1.65,4-2.4,6,0-2,0-4,0-5.74l2.43-.23Zm-9.6-2.61h0c0,.55,0,1.13,0,1.66l-4.24.56c0-.3.07-.6.09-.9a3.07,3.07,0,0,0-.14-.67c1.34-.22,2.76-.43,4.27-.65Zm-11,1.86h0c0,.32,0,.72,0,1.21l-7.06.83a47.91,47.91,0,0,1,7-2Zm-29.34,28.48h0c3.29,6.17,7.78,14.44,10,17.76l-.13.2c-1.6,1.36-3.37,3-5.35,4.79-1.19-3.88-4.58-13.07-6.92-19.37.82-1.12,1.63-2.24,2.44-3.38Zm3.1-7.81h0c-.11-.33-.18-.61-.3-1a3.33,3.33,0,0,0-.64-1.37l.43-.49,1.09,2.15c-.2.22-.39.44-.58.67Zm32.81-18.61h0l4.45-.41c.32,14,1.25,21.41,2.78,23.82-2.3.46-4.64.89-7,1.32-2.46-7.55-1.11-16.74-.26-24.73Zm19.75,2.77h0A177.71,177.71,0,0,0,786,682.05q-5.22,1.13-10.52,2.19c2.39-3.12,5.41-10.5,9-20Zm17.06,1.07h0a117.33,117.33,0,0,0,1.32,12.93c-2,.48-4,.94-6.08,1.4,1.45-4.3,3.13-9.42,4.76-14.33Zm19.3-6.75h0c.43,6.16.72,11,1,14.7,0,.14-.05.19-.09.32-2.37.62-4.81,1.21-7.21,1.82,2-5.23,4.31-11.43,6.33-16.84Zm13.54-6.71h0l1-.2c.29,7,.38,14,1.07,17.85-3.05.89-6.15,1.73-9.24,2.58,1.69-5,4-11.76,7.2-20.23ZM847.87,649h0l0,0c.32,7.17.15,14,.67,16.88-2.48.78-5,1.55-7.51,2.31A177,177,0,0,0,847.87,649Zm9.74-2.35h0l2.19-.6c.35,5.38.38,11.27.6,15.93-3.1,1-6.21,2.11-9.36,3.13,1.38-2.85,3.45-8.64,6.57-18.46Zm6,12h0c-.36-5.29-.7-9.69-1-13.37,3-.82,6-1.66,9-2.55-2,6-4.31,12.51-6.59,17.66l-1.3.44c-.08-1.23-.09-2.18-.09-2.18Zm9.78-11.25h0l2.35-6,1.79-.56c0,5.36-.3,11-.37,15-2.69,1-5.39,2.07-8.13,3.06,1.26-3.12,2.69-6.9,4.36-11.55Zm14.37-10h0c1.41-.5,2.81-1,4.21-1.52.77,5.78,1.46,10.66,2.37,13q-6.15,2.68-12.49,5.21c1.49-3.8,3.41-9.24,5.91-16.69Zm14.13-5.46h0c.88-.37,1.77-.72,2.64-1.1a121.43,121.43,0,0,0,1.63,12.6q-4.19,2-8.47,3.92a116.9,116.9,0,0,0,4.2-15.42Zm12.82-5.76h0c1.2-.58,2.44-1.13,3.63-1.73a115.68,115.68,0,0,0,1,12.35c-2.64,1.41-5.35,2.78-8.07,4.13,1.1-4.12,2.26-9.53,3.49-14.75Zm11.59,2.64h0a37.12,37.12,0,0,0,.71,3.65c-.73.42-1.46.84-2.2,1.25q.69-2.09,1.49-4.9Zm15.08-17.73h0l.27-.2c.87,4.1,1.65,8,2.44,11.11-2.51,1.68-5.11,3.27-7.7,4.89,1.85-4.91,3.6-10.76,5-15.8Zm15.19-7.42h0A71.06,71.06,0,0,0,958,612c-1.29,1-2.56,2-3.88,3,.77-3.18,1.61-6.89,2.52-11.29Zm9.13-8.06h0a45.68,45.68,0,0,0,2.62,7.88c-.88.77-1.73,1.58-2.63,2.34.07-3.09,0-6.6,0-10.22ZM980,576.49h0c.36,3.11.69,6.21.84,9.11-.87-2.69-1.66-5-2.39-7.16.53-.64,1-1.32,1.55-2Zm6.08,4h0a35.9,35.9,0,0,0,2.17,3.43c-.62.71-1.22,1.42-1.85,2.1-.07-1.77-.18-3.61-.32-5.53ZM996,564.83h0a21.44,21.44,0,0,0,3.72,5.13q-1.53,2-3.11,4c-.08-2.61-.26-5.62-.61-9.13Zm5-20.2h0c.4-.76.76-1.55,1.14-2.33,2.89,4.52,6.19,9.17,8.64,11.21q-3.75,6.22-7.87,12.1c.14-4-.4-10.72-1.91-21Zm5.86-12.47h0c.19-.44.35-.89.54-1.32,6.16,3.83,10.09,5.77,12.27,6.28-1.82,3.75-3.74,7.43-5.75,11-1-4.52-4-10.58-7.06-16Zm6.43-8.64h0a58.21,58.21,0,0,0,11.33,2.56c-1.11,2.67-2.19,5.33-3.4,7.91-1.36-2.66-4.47-6.58-7.93-10.47Zm13-1.35h0a109.2,109.2,0,0,1-13.64-5.18l.3-.9c3.7,1.1,9.27,2.75,13.55,5.59-.06.17-.14.33-.21.49Zm-9.61-18.41h0c.16-.59.31-1.2.48-1.8,6.84-3,15.38-7.13,18.7-10.07-1,4.08-2.11,8.06-3.28,12-6.54-.85-10.55-.38-15.9-.11Zm19.82-14.88h0c-1.14-.53-3.59-.72-7.79-.42a31.85,31.85,0,0,0-6.74,1.07c7-6.69,14.26-10.9,17.12-13-.76,4.22-1.65,8.32-2.59,12.38Zm-13.43-16h0c.65-4.38,1.23-8.84,1.71-13.43,8.08-3,13.82-4.56,17.29-4.86-.24,2.41-.44,4.85-.73,7.21A115.76,115.76,0,0,1,1023,472.89Zm19.7-81.64h0a21.25,21.25,0,0,0-6.23,1.29c-1.26-10.67-1.12-19.27-1.18-29.4,1.36-1.65,1.58-2.59,0-2.53-.06-5.44-.22-11.38-.72-18.38l.33-1.14-.4.11c0-.76-.11-1.51-.18-2.29a2.39,2.39,0,0,0-2.89.6,3.32,3.32,0,0,0-3.37.17l-.41.26c4.84-5.89,7.29-10.72.53-9.11-1.6.38-4.87,2.24-8.59,4.5-.12-.66-.25-1.31-.38-2,2.94-3.65,5.9-7.54,8.32-11.17a6.72,6.72,0,0,0,5,1.16c5.51,21.12,7.94,43.5,8.78,51.45.58,5.6,1,11.06,1.38,16.45Zm-25.24-93.62h0a54.84,54.84,0,0,0-5.92,3.65c-1.78-5.95-3.73-11.79-5.92-17.49,0-4.31-.77-7-2.64-6.54-8.12-19.29-18.88-36.88-33.12-52,23.36,17.94,31.21,27.73,47.6,72.34ZM38.68,411.37h0c2.07,13.36,4.86,27,8.4,40.82-.76,4.06-1.56,8.33-2.33,12.69-.07-6.64-.12-11.38-.13-11.86,0-1.69-.08-2.36-.13-1.49s-.06,2.93,0,4.61c0,.67.07,4.4.14,9.63-.61,3.45-1.22,6.94-1.79,10.42a464.81,464.81,0,0,1-4.12-64.82ZM65.06,461h0a3.06,3.06,0,0,0-.85-.56,3.38,3.38,0,0,0-3.27.45c-2-7.42-3.87-14.82-5.51-22.17l1.85-6.44Q60.61,446.7,65.06,461ZM600.88,679.41h0l-4.7.61a6.93,6.93,0,0,0-.46-1.42l5.51-.22c-.1.31-.22.67-.35,1Zm-17.79.2h0l-.91,1.93c-2,.2-4,.39-6.08.57.18-1.05.32-2,.46-2.91,2.28-.06,4.56-.11,6.75-.18a4.19,4.19,0,0,0-.22.59Zm-7.2-.39h0c-.14.95-.28,1.93-.44,3l-3,.25c.53-1.11,1-2.16,1.51-3.16l1.93,0Zm-6.23,3.43h0q-12.78,1-26.73,1.73c-.37-1.86-1.48-1.53-3.11.18-2.5.12-5.07.22-7.62.32a1.66,1.66,0,0,0-.18-1c-1.29-1.52-3.36-.82-5.82,1.2-10.09.36-20.53.59-31.18.73a29.65,29.65,0,0,0,.94-6.09c27.42.26,53.1.07,75.21-.44-.48,1.06-1,2.17-1.51,3.32Zm-19.84,36.14h0l-11.9.33c2.94-2.53,9.19-9.88,21.15-23.26-2.67,6-7.36,17-9.14,22.78l-.11.15Zm-135,1.33h0c2.77-5.83,7.27-14,11.51-21.41,0,1.54.06,3.21,0,5.17.34-2.46.56-4.57.66-6.4l3.57-6.16c6.56.08,13.09.13,19.58.11-9.17,8.54-25.62,21.69-34.9,28.7Zm-371-236.88h0c.31-1.35.62-2.71,1-4.08,0,3.5.09,7.08.13,10.55-.37-2.16-.75-4.31-1.08-6.47Zm12.43,45.08h0c3.14-9.52,5.44-14.85,8.53-20.51-.92,9.28-3.63,37.7-2.34,38.58.36-11.18,2.42-27.28,3.63-36.66,2.14,5.25,4.4,10.45,6.74,15.62-4.5,10.13-9.5,23.31-6.1,26.27a114.14,114.14,0,0,1,9-20c1.9,4,3.85,8,5.88,11.87-3.31,6.74-4.59,13-5.87,23.84,3.88-7.45,6.09-12.74,9-18,1.22,2.28,2.44,4.56,3.71,6.81a1.17,1.17,0,0,0,0,.11c-3.84,6.43-10.78,16.3-15,20,0-6.16,3-18.26,3.84-21.94a3.43,3.43,0,1,0-6.67-1.57c-1.22,5.79-2,10.56-2.48,14.58a312.92,312.92,0,0,1-21-66.2c2.47-5.85,5.81-12.45,9-18.46,2,5.85,4,11.67,6.2,17.46-4.44,9-6.45,14.3-6,28.19Zm50.09,56.12h0a94.6,94.6,0,0,0-6.85,7.61c1.77-3.27,3.56-6.51,5.36-9.75l1.49,2.14ZM98.05,572h0c-2.55,4.69-5.78,10.35-9,13.57,0-3.43,1.18-9.08,2.58-14.71.87-1.67,1.76-3.27,2.69-4.83,1.22,2,2.49,4,3.76,6ZM83.9,574.44h0c-1.52,12.18-.08,23,7.11,17.35a83.34,83.34,0,0,0-1.66,12.39,8.89,8.89,0,0,0,0,1.36,247.33,247.33,0,0,1-13.75-22.76,41,41,0,0,0,8.31-8.34ZM103.35,598h0c-3,8.52-4.79,14.78-5.52,19.27-2.33-3-4.61-6.06-6.77-9.17,2.6.11,7.73-4.91,12.29-10.1Zm.25,16.7h0a6.78,6.78,0,0,0,.55,2.6c.35-3,.81-5.71,1.35-8.36,2-5.79,4.28-12.38,5.76-17.7,2.2,2.94,4.43,5.85,6.71,8.68-.72,2.35-1.17,3.94-1.59,5.82-4.33,6.09-11.15,14.62-14.5,16.15a31.44,31.44,0,0,1,1.72-7.19Zm17.09-6.8h0c.63-.95,1.17-1.85,1.65-2.72,3.42,4,6.91,7.94,10.51,11.68-.11.4-.22.8-.31,1.19-3.8,6.15-9,15-15.61,16.45-1.63-4.22.76-17.84,3.76-26.6Zm8.92,18h0l1.36-1.77c-1.93,7.65-3.41,14.22-2.85,14.6h0l.07.07c1.41-.45,5.14-9.06,8.66-18,.65.65,1.29,1.31,2,2-.17,11.48-3.51,30.94,6.67,12.92-2.15,7.69-4.47,17.41-4.94,23.87A226.4,226.4,0,0,1,115.92,638c2.68-.33,7-3.77,13.69-12.15Zm10.55-1.72h0c2,1.85,4,3.61,6,5.37-1.79,4.16-3.63,8.79-5.3,10.08-.13-1.08-.52-3.94-.52-4.11,0-4.54,0-8.27-.14-11.34Zm5.72,39.4h0c-1.64-1.17-3.23-2.38-4.82-3.58.6-4.34,2.69-11,4.88-17.62-.71,4.38-1.3,8.24-1.53,10.55l-.26.13a.59.59,0,0,1,.24.07c-.24,2.42-.07,3,.75.42l.09-1-.4.18c1.91-6.12,4.16-12.42,6.49-18.7,2.42,2,4.85,4,7.33,5.83-2,13-3,25.87-2.49,30.61-3.3-2.1-6.57-4.22-9.71-6.44a34.24,34.24,0,0,0,3.06-3.41,34.36,34.36,0,0,1-3.63,3Zm11.59,5h0c.28-8.5,2.28-17.44,4.85-26.1,2.4,1.71,4.81,3.37,7.26,4.94-2.26,8.85-4.76,20.65-4.65,28.47-2.51-1.44-4.92-3-7.35-4.48a30.59,30.59,0,0,0,1.45-4.57,18.41,18.41,0,0,0-1.56,1.74Zm68.7,1.76h0c-3.61,6.67-7.46,14.61-10.1,19.59.11-1.05.24-2,.31-2.44,1.21-7.95,2.08-14.16,2.69-19,2.33.62,4.67,1.23,7.1,1.82Zm31.62,6.55h0c-5,9-10.7,20.39-14.37,24.48-.23-5,1.81-18.17,3.23-26.55,3.64.72,7.35,1.4,11.14,2.07Zm-23.29-4.63h0l4.17.92c-2.65,5-5.34,10.52-7.39,14.86,1-6.45,2.81-13.51,2.81-13.51.15-.81.28-1.53.41-2.27Zm-25.74-6.63h0c1.44.42,2.93.84,4.41,1.25-3.08,6.7-7,14.75-11.24,20.44.78-6.47,4-14.43,6.83-21.69Zm-15.06-5.49h0c1.38.58,2.75,1.2,4.16,1.74-2.05,3.06-4,6.23-5.82,9.19.53-3.59,1.09-7.26,1.66-10.93Zm-19.11-9.66h0c2.91,1.74,5.87,3.35,8.86,4.88a145.19,145.19,0,0,1-11.85,18.64c-1.5-8.77.17-15.73,3-23.52ZM186.79,662h0c-1.44,10-2.4,19.9-1.5,24.32-3.7-1.72-7.37-3.46-10.91-5.31,3.44-3.8,8.15-11.23,12.41-19Zm3.13,24.3h0c2.92-3.83,7.38-10.37,11.75-17.06-2.28,8.18-4.35,16.91-4.53,22.26q-4.37-1.77-8.6-3.68a10.32,10.32,0,0,0,1.38-1.52Zm13.68,7.54h0c3.36-3.28,6.74-9.49,9.77-16.05-.91,7.94-1.43,15.94-.44,19.61-3.23-1.09-6.34-2.27-9.46-3.45a.69.69,0,0,0,.13-.11Zm14,3.25h0c4.5-5.85,8.35-15.4,12.45-23.91-2.19,13.06-4.63,31.75,1.09,25.14,3.38-3.9,7.26-15.26,11-24.41-3,14.24-5,28.17-2.55,31.16q-12-2.94-23.2-6.59a12.3,12.3,0,0,0,1.24-1.39ZM254.9,687h0s2.16-5,4.92-9.84c1.78.31,3.63.6,5.44.89-1.42,9.26-3.63,22.77-4,31.56q-10.23-1.83-19.9-4.13c2.48-.82,6.74-6.21,13.53-18.48Zm11.45-16.91h0l-1.44-.25a8.77,8.77,0,0,1,1.53-1.31,14.87,14.87,0,0,1-.09,1.56Zm-1.27,27.36h0c1.42-7.94,2.35-14.12,2.9-18.94,4.75.77,9.56,1.5,14.49,2.2-3.56,8-8.79,22.39-14.13,30.19-.63-.1-1.3-.19-1.92-.3-1.13-.19-2.19-.44-3.3-.63a115.53,115.53,0,0,1,2-12.52Zm10.41,2.1h0c.82-1.72,5.82-12.77,9.11-18.54l1.61.21c-1,10.24-3.38,36.85,1.16,26.93a25.09,25.09,0,0,0,2-2.4c-.42.36-3.17,3.88-3.68,4h0s0,0,0,0c-.8-1,0-9.09.07-9.7.82-8.7,1.22-14.71,1.28-18.67q6.31.85,12.8,1.63c-7.07,29.18-9.6,45.56,26,6.43.32-.34,1.36-1.63,2.73-3.37l6.51.61c-5.41,11.67-11.91,23.13-13.58,30-19.25-1.36-36.89-3.18-52-5.52,1.67-2.87,3.65-6.65,6-11.53Zm31.15-15.77h0q6.47.74,13.06,1.4c-6.56,7.42-12.93,14.41-17.63,18.18,2.08-9.63,2.51-11.3,4.57-19.58Zm68.27,5.65h0c-3.63,4.42-8.51,11-15,20.28,2.21-6.52,5.53-14.7,8-20.69l7,.41Zm21.73,1h0c-7.34,8.74-16.88,22.27-21.77,28.19,1.79-7.6,6.49-20.45,8.5-28.76,4.42.2,8.84.4,13.27.57Zm-46.7,13.43h0c1.92-7.26,2.77-12.38,2.83-15.83l8,.55c-3.38,4.73-7.28,10.2-10.81,15.28Zm-7.41-16.62h0q-1.45,1.47-2.94,3.24c.49-1.19.91-2.24,1.36-3.37l1.58.13Zm-14.19,29h0c5.83-9.37,14.4-23.3,20.25-27.49.48,7.42-7.66,21.65-7.86,29-4.3-.24-8.56-.5-12.74-.77.12-.25.24-.52.35-.77Zm29.55-14.73h0c-2.34,6.76-4.14,13.35-4.22,16.9l-7.44-.35c2.74-3.69,7.29-10,11.66-16.55Zm7,8.73h0c1.38-2,9.72-14.14,15.09-20.58l.34,0c-2.44,13.15-6.09,23.71-7.81,29.45-4.76-.15-9.5-.32-14.17-.52a72.7,72.7,0,0,0,6.55-8.37Zm23.64-5.93h0c6.58-8.25,9.07-11.55,11.2-13.8l2.67.1c-3.15,9-8.87,25.27-7.56,29.13-6.15-.13-12.29-.28-18.35-.48,2.66-3.16,6.55-8.06,12-14.95Zm13.84-4.83h0c1.31-3.55,2.25-6.41,2.93-8.77,4.52.15,9,.26,13.53.36-7.71,7.39-18.55,24.8-22.26,26.84,0-3.62,5.38-17.26,5.8-18.43Zm57.26-8.14h0l4.1,0c-3.11,3.49-6.7,8-9.93,12.3,2-4.34,4.13-8.76,5.83-12.25Zm21.84-.4h0c-3.94,4.39-8.66,9.63-14.21,15.37,2.51-5.61,4.83-11.05,5.24-15.16,3-.05,6-.13,9-.21Zm5.6-.15h0l1.75-.05c-3.21,9-7.91,23.16-8.3,29.37q-9.93.11-20.06.13c6.12-3.51,17.48-19.77,26.61-29.45ZM537,688.1h0c-3.63,5-8.48,12.88-13.48,19.52,2.52-6.33,6.23-14.14,7.88-19.08,1.88-.15,3.76-.28,5.6-.44Zm-22.88,11.25h0c1.95-4.65,2.8-7.8,2.88-9.85,1.75-.1,3.46-.21,5.18-.33a123.68,123.68,0,0,0-8.59,11.39l.53-1.21Zm-20.24-8.74h0q7.11-.27,14.06-.62c-5.81,4.21-13.28,11.52-19,17.93,2.16-7.18,3.81-12.87,5-17.31Zm17.33,2.88h0c-2.87,6.45-8.53,19.71-9.72,26.39q-7.81.14-15.83.22c9.06-10,10.11-18.23,25.55-26.61Zm14.48-1.82h0c-4.67,12.24-12.53,34.41-4.26,24.72,5.21-6.1,12.85-20.5,19-27.2-1.2,15.77-4.83,26.79-4.7,30-9.18.23-18.73.44-28.53.62,4.1-6.28,10.7-20.1,18.53-28.12Zm12.7,23.68h0c-.1-3.78.21-2.68,2.68-15a106.34,106.34,0,0,0,2-12.78q13.37-1.19,25.65-2.75c-3.78,8.24-8.52,18.19-13.78,26.62,23.46-49.52-6.89-2.77-16.53,3.89Zm-52.29-29.41h0q-7.41,0-14.94,0a3.37,3.37,0,0,0-.46-.54,3.57,3.57,0,0,0-1.19.53l-6.84,0c1.16-2.61.53-4.31-2.76-4.56-.21,0-1.31,1.72-2.87,4.48h-.16a2,2,0,0,1-.19-1.33,9.19,9.19,0,0,1-.93,1.32q-10.73-.15-21.59-.45c1.05-1.79,1.91-3.25,2.44-4.17a3.32,3.32,0,0,0,.19-2.7c18.81.64,37.39,1,55.32,1.23-1.55,1.39-3.55,3.5-6,6.22Zm-59.92-.84h0c-6.5-.22-13-.46-19.54-.77,0-2.69-1.58-2.34-4.05-.19q-9.17-.45-18.3-1c-.23-1.45-1.19-1.69-3.15-.18q-6.11-.39-12.17-.83c.5-1.75.27-2.72-1.09-2.44-.32.07-.77.63-1.34,1.55l-.33-.2c-.19.27-.41.58-.62.86q-11-.82-21.8-1.81c.92-2.43,1.77-4.72,2.46-6.72,27.22,2.29,55.84,3.89,84.14,4.92-.47.75-2.06,3.26-4.21,6.83Zm-85.52-12.24h0c-.7,2.18-1.52,4.42-2.45,6.7l-4.14-.41,5.07-6.43,1.52.14Zm-14.84,5.44h0q-8.76-.91-17.28-2c.42-1.69.87-3.48,1.37-5.57a2.8,2.8,0,0,0,0-1Q320.4,671,331.36,672c-1.81,2-3.69,4.13-5.58,6.29Zm-22.62-8.88h0q-.74,3.08-1.46,6c-11.46-1.48-22.51-3.14-33.08-5,.16-8.76-2.58-7-6.42-1.12q-7.26-1.32-14.15-2.76c1-7.45-.59-7.4-3.31-3.73,0,0-.08-.12-.12-.18l-.13.52c-.48.67-1,1.45-1.52,2.31-2.47-.54-4.88-1.08-7.26-1.65.7-8-1.67-6.53-5.13-1.22-3.38-.83-6.67-1.7-9.85-2.58.28-.7.54-1.37.79-2l-1.4-.28c.16-4.49-.78-3.86-2.5-.52l-1.21-.24s-.12.65-.3,1.69c-1.5-.44-3-.89-4.45-1.34a24.88,24.88,0,0,0,1.41-7.47c.21.07.39.17.6.24,21.55,8.18,53.2,14.27,89.69,18.76a2.67,2.67,0,0,0-.2.46Zm-95.31-20.13h0a2.58,2.58,0,0,1,.05-.36l-.15.46a42.62,42.62,0,0,0-4.59,5.07c-2.72-1-5.41-2.16-8.06-3.36.47-3,.92-5.93,1.37-8.79q6.22,3.32,12.6,6c-.4.29-.81.62-1.22,1Zm-20.45-1.94h0q-4.86-2.54-9.55-5.45c.49-1.28,1-2.55,1.51-3.91a3.43,3.43,0,1,0-6.42-2.39c-.15.41-.45,1.36-.85,2.65-2.32-1.57-4.59-3.27-6.86-5,1.12-3.25,2.27-6.39,3.39-9.43A190.35,190.35,0,0,0,190.49,639a50.86,50.86,0,0,1-3.09,8.39Zm-26.91-17.76h0c-1.93-1.56-3.87-3.1-5.76-4.75,1-2.61,1.94-5.2,2.87-7.73a3.42,3.42,0,1,0-6.67-1.54c-.18.67-.56,2.45-1,4.83-3.19-3-6.32-6-9.37-9.24,1.85-4.92,3.25-8.79,3.65-9.91a243.9,243.9,0,0,0,18.85,18c-.92,3.15-1.78,6.68-2.54,10.36Zm-22.86-30.28h0c-.12.46-.85,3.07-1.86,6.72q-5.07-5.65-9.88-11.72c1-2.51,2.28-5.63,3.88-9.58q5.08,6.28,10.38,12.14a3.38,3.38,0,0,0-2.52,2.44Zm-13.7-18.41h0c-.94,3.05-1.7,5.54-2.41,7.78-2.85-3.79-5.62-7.69-8.31-11.66a3,3,0,0,0-1.14-2.08c-.1-.05-.2,0-.29,0-.54-.81-1.09-1.6-1.62-2.42.88-1.66,1.76-3.31,2.63-5a3.43,3.43,0,0,0-6.48-2.23c-.09.25-.19.46-.28.7q-3-4.77-5.77-9.67c1.37-2.28,2.79-4.71,4.29-7.54a337,337,0,0,0,20.84,30.45,3.39,3.39,0,0,0-1.46,1.7Zm-25.7-34.71h0c-.53,1.26-1.08,2.44-1.64,3.64-1.86-3.41-3.69-6.85-5.45-10.33,1-1.27,2-2.57,3.19-4a3.34,3.34,0,0,0,1-2.89c2.09,3.84,4.25,7.62,6.44,11.36a3.37,3.37,0,0,0-3.49,2.19Zm-8.67-15.58h0c-.59.85-1.07,1.58-1.6,2.37q-3-6.15-5.76-12.43c.77-1.31,1.56-2.65,2.38-4.1a3.44,3.44,0,0,0-1.65-4.56,3.38,3.38,0,0,0-4,.94q-3.62-8.6-6.85-17.35l1-1.74a3.43,3.43,0,0,0-1.46-4.62,3.48,3.48,0,0,0-2-.31c-2.23-6.39-4.33-12.82-6.25-19.26,1.3-2.27,2.29-4,2.65-4.65a2.29,2.29,0,0,0,.07-.36,403.14,403.14,0,0,0,28,66,3.41,3.41,0,0,0-4.6.09ZM53.89,475.94h0c-2.54,6.1-5.47,13.41-7.89,20.21-.38-2-.67-4-1-6,0-3.75-.06-7.63-.1-11.43,1.43-6,3-12.09,4.51-17.94q2.11,7.58,4.5,15.16Zm-15.1,40.87h0c.29,1.16.64,2.3.94,3.45a7.14,7.14,0,0,1-.94-3.45Zm65.55,108.57h0c3-1.86,6.67-5.33,10-9.15-.5,2.66-1.12,5.9-1.94,10.09l.38-.88a29.72,29.72,0,0,0-.27,9.18c-2.83-3-5.52-6.1-8.17-9.24Zm293.29,94.46h0c1.86-1.34,4.72-4.52,8.9-10.2,6.18-8.39,10.68-15.17,13.85-18.49l2.14,0C417.36,700,411,711.55,407.87,720c-3.42,0-6.84-.1-10.24-.18Zm51.43-18.69h0c-3.63,7.58-6.88,15.3-7.37,19.18q-7.94,0-15.9-.1c7.28-5.57,16-12.55,23.27-19.08Zm-2.27,19.18h0c2.83-2.47,6.91-6.85,12.76-14-1.67,4.61-2.89,9-3.06,12.34l1.48,1.59-11.18,0Zm106.26-1.64h0c.63-.88,1.31-1.87,2.13-3.11,4.48-6.79,11.18-20.52,16.28-31.1l3.73-.49c-.46,3.19-.93,6.58-1.35,9.78.66-3.27,1.28-5.82,1.28-5.82.26-1.47.47-2.76.69-4.05,1.91-.27,3.79-.55,5.67-.84q-4.5,9.65-8.49,18.07c.22-2.18.51-4.69.85-7.36-.52,2.62-1,5.67-1.29,8.28q-4.14,8.76-7.73,16.27c-3.83.13-7.73.26-11.77.37Zm55.61,75.52h0c.14-.56.28-1.15.44-1.84-.49.86-.82,1.56-1.11,2.2.59-4.44,1.25-6.83,1.24-10.91,1.58.38,3.17.79,4.8,1.23-1.22,2.09-3.08,5.3-5.37,9.32Zm-9.28-12.49h0l0-.09c2.09.36,4.23.79,6.43,1.26-1.4,3.75-2.44,9.77-4.11,12.82-1-6.77-1.78-11.26-2.36-14Zm1.12,14.64h0c-1.54-.27-3.19-.51-4.9-.74a79.55,79.55,0,0,1,2.64-10.8,48.39,48.39,0,0,1,2.26,11.54Zm-6.62-3.3h0c-1-3.71-1.68-7-2.21-9.66.06-.91.12-1.86.17-2.85,1.68.2,3.4.43,5.16.7a118.61,118.61,0,0,1-3.12,11.81Zm-2.65-11.92h0c-.05-.25-.08-.44-.13-.67l.64.07a2.14,2.14,0,0,1-.51.6Zm.21,13.87h0l-.85-.13c.1-.66.2-1.39.29-2.18.2.85.38,1.58.56,2.31Zm-3.07-14.14h0a2.62,2.62,0,0,1-.23-.32l.16.72-.9,5.11c-.75-2.64-1.43-4.76-2.06-6.45l3.15.26c0,.25-.07.41-.12.68ZM577,779.55h0c.9,0,1.82,0,2.76.07-.25,1.75-.45,3.76-.57,5.79-.79-2.16-1.56-4.24-2.19-5.86Zm-6,7.92h0c-1.58-2.75-3.05-5.68-4.15-7.79,1.2,0,2.44-.09,3.71-.12a50.79,50.79,0,0,0,.44,7.91Zm-10.9-6.67h0l-.74-.7c.24,0,.49,0,.72,0a3.68,3.68,0,0,0,0,.74Zm23.77,10.77h0c.27.77.53,1.49.78,2.18l-.82-.2c0-.63,0-1.29,0-2Zm18.44,5.14h0c1-2.54,2.55-6.38,5.11-11.87a110.85,110.85,0,0,0-.51,12l0,.08,0,0a1.61,1.61,0,0,0,0,.33c-.12.23-.27.47-.39.7a27.25,27.25,0,0,0-4.25-1.23ZM555.5,769h0c12.83-25.3,29.18-61.34,40.61-85.95a6.56,6.56,0,0,0,.17-2.52c1.53-.29,3-.58,4.5-.9-5.43,15.08-31.88,75.21-35.54,85.46h0c2.3-4.94,46.29-88.37,39.13-90.89-2.48-.87-12.14-1.32-26.94-1.62,0-.17,0-.39.06-.54a14.55,14.55,0,0,1,1-1.69.84.84,0,0,1-.86.05c.14-3.85-1.07-2.32-3.26,2.12-47.33-.88-141.5-.67-225.58-7.63,2.75-11.37-2.14-8.74-10-.86-48.67-4.41-93.09-11.39-121.85-22.61C76.27,586.58-14.48,269.82,145.68,221.4a6.74,6.74,0,0,0-1.49-13.4C57.4,233.74,36.32,326.12,54.79,420.57a3.5,3.5,0,0,0-1.72,1.83c0,.09-.21,1-.5,2.35-5-27.09-7.06-53.11-5.86-75.9,5-95.22,27.86-110,99.87-145,0,.1,0,.19,0,.28a6.74,6.74,0,0,0,8.75,3.78c116.4-13.66,608.69-43.79,734.49-17.8,86.34,35.74,120.63,146.05,112.54,245.75-2.1,2.81-2,4.12-.38,4.42-7.26,77.18-40,147.17-93.66,170-29,12.37-51.82,20.44-70.07,25.73-.71-.48-1.54-.19-2.42.71a270.3,270.3,0,0,1-31,7c-.56-.83-1.16-.69-1.85.28-4.82.72-9.14,1.19-13,1.47-.87-1.45-2.06-1.21-3.42.22-26.25,1.39-31.83-4.57-56.41,18.09l-2.49.26,2.35-.14c-12,11.12-28.58,29.05-54.33,58a6.72,6.72,0,0,0-1.49,7.43,3.35,3.35,0,0,0-2.42,1.63,3.44,3.44,0,0,0,1.3,4.68c3,1.31,5.42,2.4,7.42,3.3a3.35,3.35,0,0,0-.53.77c46.21,17.12,25.87,9.68,67.53,24.74.3.58.67,1.21,1.09,1.93-.55.44-1.11.9-1.67,1.33-23.35,17.85-48.68,37.4-74.36,57.06a14.48,14.48,0,0,0-.64-3.11c-2.07-5.53-3.78-3.08-5.16,3.05a3.09,3.09,0,0,1-.58-1.13s0,1.41.05,3.73c-.15.84-.3,1.73-.44,2.64q-10.26,7.86-20.54,15.66c-1.91-4.54-3.93-1.65-5.79,4.4-19,14.43-37.87,28.58-55.9,41.8a2.84,2.84,0,0,0-.33-.68c-3.8-4.65-5.45-1.1-6,5.32-5.27,3.83-10.47,7.62-15.57,11.26C627.8,766.62,672.38,776.5,555.5,769ZM662,877.4h0c-.36-3.8-.65-7.59-.82-10.73-.46-9-.86-15.42-1.26-19.77.12-.68.26-1.44.4-2.26l1.22-.93c0,1.69-.17,14.59.8,24.13-.17,3.16-.25,5.12-.26,5.18a4.64,4.64,0,0,1,.8-1,22.93,22.93,0,0,0,1,4.17L662,877.4ZM569.5,920.58h0l0-.05c.06.26,1,3.9,1.6,7-3.32-3.21-8.07-7.85-8.77-8.48,0,0-.09,0-.13-.06l7-5.21c3.64,8.21,6.48,13.45,8.66,16.44l-1.1.65c-.57-2.19-2.12-5.59-5.15-10.77a8.35,8.35,0,0,0-2.4-2.59,5.69,5.69,0,0,0,.36,3.09ZM577,907.83h0c.08,2.52.22,5,.37,7.42-.95-2-1.78-3.67-2.17-4.58a3.34,3.34,0,0,0-.61-1l2.41-1.81Zm69.48-52.61h0c3.29-2.51,6.58-5,9.9-7.55-1.89,11.19-4.67,30.59-9.7,38.67-1.21-7.06-.08-21.29-.2-31.12ZM626.29,870.6h0c-1,5.83-2.44,15.9-3.2,21.64-.24-1.75-.38-3.39-.45-3.93-.85-6.43-1.58-10.67-2.2-13.27,1.93-1.45,3.89-2.94,5.85-4.44Zm-41.65,44.15h0c1.48,3.74,3.05,7,4.5,8.62-1.52.93-3,1.83-4.56,2.74a101.1,101.1,0,0,0,.06-11.36ZM586.13,901h0l3.4-2.56c-.52,3.41-.93,7.22-1.23,10.72-.76-2.72-1.5-5.55-2.17-8.16Zm7.55,12.42h0a53.89,53.89,0,0,0,1.7,6.19c-.68.42-1.36.85-2,1.26.11-1.44.23-4.19.35-7.45Zm2.05-19.65h0l.55-.43c-.1.84-.19,1.69-.27,2.57-.1-.77-.18-1.48-.28-2.14Zm3.47,22.52h0a2.28,2.28,0,0,1,.22.22l-.18-.44c.72-4.3,1.38-11,2-20.62,2.28,8.67,3.32,16.92,4.59,17.68-2.29,1.41-4.56,2.85-6.86,4.25.08-.37.15-.65.22-1.09Zm4.07-28.22h0l6.42-4.85c-.81,4.08-1.7,11-3.29,18.41-.18-1-.29-1.7-.29-1.71a99.24,99.24,0,0,0-2.84-11.85Zm7.91,2.44h0c1.09,5.6,2.71,13.25,4.26,16.68-2.92,1.82-5.85,3.62-8.78,5.43,1-1.86,2.36-8.34,4.52-22.11Zm1-9.19h0c1.78-1.34,3.6-2.71,5.41-4.1-.69,5.94-1.15,15.44-1.76,21.95-1.66-9.6-2.78-15.2-3.65-17.85Zm7.16,15.06h0c.24-4.37.27-9.4.5-14.19,1.28,6.32,2.08,11.42,2.7,14.29v0h0c1.33,6.23,1.76,1.8,4.3-23.68,0,0,0,.09,0,.12,3.46,7.39,8.78,41.39,14.84,2.44a98.7,98.7,0,0,0,2,13.91q-12.59,8.07-25.24,16a79.79,79.79,0,0,0,.89-8.93Zm10.71-28.6h0l6.4-4.87c-.7,3.65-1.34,7.39-1.88,10.83-.47-1.25-1.08-2.69-1.88-4.43a3.29,3.29,0,0,0-2.64-1.53Zm25,6.09h0c1.75-7.16,2.74-11.4,3.31-14.05.35,6.41.82,13.27,1.5,19l-7.49,4.86c.84-2.7,1.72-5.92,2.68-9.84Zm84.64-88h0a18.71,18.71,0,0,0-.66-2.66c1.81-1.47,3.5-2.87,5.07-4.17-.54,7.73-.77,20.89-1.45,31.33-.9-9-1.62-15.49-2.23-19.94.27-2.12.49-3.77.63-4.71l-1.36.15Zm-2.9,3.87h0c-1.1,8.58-2.46,22.89-5.16,33-.59-10.27.37-25.1-1-32.79,2.47-2,4.78-3.85,7-5.64-.11.53-.22,1.11-.34,1.8l-.55.07s0,1.34,0,3.53Zm-16.59,12h0a8.67,8.67,0,0,0-1.28-2.39l5.09-4c-1.25,4.79-2.49,10.75-3.6,16.64.11-5.23.12-9.37-.21-10.22Zm-22.11,19.93h0c.1-.54.16-.85.19-1a5.25,5.25,0,0,0-.09,1l-.1,0Zm-3,7.73h0c0-2.27,0-4.54,0-6.82a3.44,3.44,0,0,0-2-3.06c3.39-2.63,6.71-5.2,10-7.75-1.44,3.06-2.93,6.66-4.38,10.45-1-7.76-1.83-3-3.59,7.18Zm2.65-4.72h0c-.15.42-.31.83-.45,1.25l.37-2c0,.21.06.49.08.72Zm-8.39,25.6h0c-.32,1.16-.53,2-.63,2.49a3.23,3.23,0,0,1,.83-1.1c.15.94.33,1.76.51,2.52-.5,2-1,4-1.6,5.94-1.49-7.38-1.33-25.77-2.25-35.28l2-1.58c0,3-.16,17.68,1.1,27Zm-19.95,14.46h0c.76,3.25,1.7,5.48,2.85,6.1l-3.57,2.33c.26-2,.5-5,.72-8.43Zm3.75-29.83h0c.39-.31.79-.61,1.19-.91-.4,1.79-.76,3.82-1.09,6,0-1.75-.06-3.45-.1-5.09Zm2.44,33.72h0a9,9,0,0,0,.75-2.43,11.54,11.54,0,0,0,.55,1.6c-.45.28-.89.58-1.34.87l0,0ZM679.46,830h0l1.61-1.24c-.24,1.7-.49,3.52-.72,5.43a17.69,17.69,0,0,0-.6-3.45c-.1-.28-.19-.49-.29-.74Zm4.5,4.52h0c1.44,10.7,1.91,21.15,2.56,26.9L682.58,864c.9-7.55,1-19.65,1.38-29.48Zm6.93,22.3h0a2.28,2.28,0,0,0,1,1.08l-1.47,1c.16-.63.32-1.33.49-2.05Zm3.84-1.23h0c2.58-4.73,3.5-9.3,4.24-14.09.31,4.55.63,8.69,1,11.07-1.91,1.25-3.81,2.52-5.71,3.78.15-.26.31-.44.48-.76Zm6.12-5.5h0c-.37-5.59-.7-10.34-1-14.33a57.74,57.74,0,0,1,5.24-17.34c-.37,9.41-.62,23.24,1.08,30l-4.84,3.22c.24-1.78.5-4.4.78-8.11-.22.85-.81,4-1.27,6.55Zm10.51-44.85h0l3.13-2.46a65.42,65.42,0,0,0-2.43,8.72,33.59,33.59,0,0,0-.18-3.47,19,19,0,0,0-.52-2.79ZM715.43,834h0c.42,3.2,1,5.72,1.81,7.05l-3.35,2.22c.53-2.68,1-5.85,1.54-9.27Zm10.82-13.66h0c.53,5.67,1.36,10.57,2.6,13L722,837.9c1.81-4.12,3.15-10.56,4.22-17.53Zm11.46-10.17h0c.54,6.36,1.36,12.32,2.61,15.55l-6,4c1.06-4.21,2.28-11.78,3.38-19.53Zm9.95-15.55h0c2,10.42,4.18,18.92,5.86,22.34l-8,5.29c1-6.19,1.66-17.44,2.12-27.63Zm.87-19.38h0q1.89-1.6,3.42-3c-.18,7.39.13,18,.49,26.85-1.58-9.22-3.13-19.45-3.91-23.89Zm6.82,13.3h0s-.13-4.27-.31-9.13c2.5,10.45,6,24.11,8.69,30.78l-7.65,5.07c.44-4.2.31-12.63-.73-26.72ZM559.11,923.71h0c4.29,3.28,9.92,7.64,13.72,9.46-1.62,1-3.23,2-4.85,2.92-5.55-7.9-4.85-7-8.87-12.38ZM771.75,804.9h0q-2.07,1.38-4.15,2.75c0-2.53,0-5.85-.26-10.15l-.08-.85a66.32,66.32,0,0,1,4.49,8.25Zm-7.12-12.58h0c.7,6.55,1.29,12.77,1,16.62a2.4,2.4,0,0,1-.26.18c-1.86-5.43-4.55-17.46-6.3-25.7,1.91,3,3.8,6.06,5.54,8.9ZM749.09,766h0l-1.1-1.35,1.93.71c-.27.22-.55.42-.83.64Zm-54-25.81h0c-2.33-1.16-3.68-1.92-7.21-4,1-1,2-2,3-2.92,4.35,3.56,9.82,7.42,13.51,7.8l-.93,1.07-8.41-2Zm30.29-21.75h0c-.49-2-3.34-11-5.58-18.16q1.47-1.92,2.91-3.87c3.25,6.2,7.14,13.12,9.43,15.42-2,1.93-4.3,4.12-6.76,6.61ZM745.94,700h0c-5.56-16.86-3.34-10.46-8.34-24.41l1.09-1.54c8.53,26.43,17.07,18.47,7.25,26ZM974.16,598.34h0c.44-3.6.73-8.53.94-13.5,1.15,3.23,2.4,6.41,3.64,9.06-1.52,1.48-3,3-4.58,4.44Zm53.41-79.62h0c-2.18-1.09-4.86-2.29-8.24-3.61,3-.48,6.57-1.1,10.12-1.8-.63,1.81-1.22,3.64-1.88,5.41Zm11.21-9.92h-.06s0,0,0,0Z"/></svg>