<svg id="Layer_1" data-name="Layer 1" xmlns="http://www.w3.org/2000/svg" viewBox="0 0 1080 1080"><defs><style>.cls-1{fill:#fff;fill-rule:evenodd;}</style></defs><title>myth-busters__bubble_4</title><path class="cls-1" d="M934.74,707.09a7.44,7.44,0,0,0,5.86,8.75c13.4-.84,6.85.79,19.54-5.23-10.9-7.53-5.31-4.48-16.64-9.38a7.45,7.45,0,0,0-8.76,5.86ZM194.49,205.93c3.45-5.72,6.33-9.31,8-8.06a53.48,53.48,0,0,1-.92,7.21c95.77-11.3,220.65-4.86,311.06,2.19,1.3-1.89,2.68-3.93,4.29-6.3-.57,2.39-1.1,4.55-1.57,6.52,39.7,3.12,72.46,6.32,92.88,8.13,3-3.86,5.08-6.18,5.41-5.35a53.14,53.14,0,0,1-1.32,5.71c2.41.21,4.68.41,6.65.56a7.35,7.35,0,0,1,6.59,6.64l13.45,2c3.59.44,7.08.84,10.6,1.25.59-.55,1.13-1,1.77-1.67-.21.66-.39,1.2-.57,1.81,6.93.83,13.79,1.61,20.49,2.37.74-.68,1.47-1.33,2.33-2.1-.29.83-.5,1.52-.76,2.28,13.39,1.5,26.24,2.89,38.65,4.2,1.07-1,2.21-2.14,3.47-3.38-.46,1.33-.86,2.47-1.24,3.62l17.58,1.84c.86-.9,1.78-1.82,2.79-2.88-.28,1.13-.52,2.1-.78,3.08,19.16,2,37.1,3.76,53.92,5.49,3.65-3,6.49-4.48,7.37-2.87a20.2,20.2,0,0,1-1.36,3.5c37.42,3.89,69.07,7.53,95.83,12.25.67-.07,1,0,1.17.21,8.22,1.46,16,3,23.27,4.76,7.53-1.76,11.87-1.83,7.87,1.94C1022.63,287.29,1034,346.94,1034,558.62c0,77.88,25.71,174.84-54,192.92a7.11,7.11,0,0,1-3,2.61c-30.3,6.73-39.73,3.93-67.15,7.17-5.37,10.51,2.42,86.26-1.46,139,3.72,35.59,1.65,61.86-40.25,76.78a7.46,7.46,0,0,1-8.06-6.79s0-.05,0-.07c-12.5-4.82-39-45.23-91.47-148.77-11.48-22.68-23-45.53-33.43-68.82-129.94,5.94-575.72,30.6-604.15-30.68C106.6,669.13,5.81,340.26,58.91,268.08c-.91-4.1,0-6.66,4.88-5.43.31-.28.58-.59.9-.85.75-1.51,1.59-3,2.5-4.45,0-.42.09-.64.47-.68,16.41-24.79,57-39.76,109.32-48.22,1.41-1.66,2.94-3.5,4.64-5.56l-.12.2c.73-.54.29-.33,1.35-.57.23.49-.31,2.46-1.29,5.24,4.24-.65,8.54-1.26,12.93-1.83Zm-4.88,8.7c-3.82.43-7.61.92-11.31,1.43-2.88,6.94-6.71,15.5-10.3,23.38,2.79-.27,5.59-.52,8.43-.76,4.21-6.86,8.88-16.07,13.18-24.05Zm297.53,3.92c-14.48-1.25-29.59-2.45-45.1-3.56-4.49,16-4.45,17-7.65,24,5.06.27,10.11.58,15.18.87,4.39-7.08,4.05-5.78,18.23-19.74-4.27,14-4.94,16.8-6.3,20.5l8.74.56c4.84-9.44,4.23-7.77,16.9-22.62Zm278.31,27.53c-5.09-.61-10.29-1.27-15.59-1.93-3.3,13.75-1.41,8.48-9.36,23.34l4.59.58c8.65-13.56,5.13-9.31,20.36-22Zm223.86,65.57c-5-2.45-27.32-3-47.55-3.06.74.48,1.5,1,2.24,1.46a7.24,7.24,0,0,1,4.92.08c25.13,6.06,40.73,12.25,50.27,17.37a103.72,103.72,0,0,0-8.43-14.27,1.34,1.34,0,0,1-1.11,0l-1.06-.33c.52-1.09.47-1.08.84-1.25a.09.09,0,0,0-.12,0Zm-2.56,349.07c-.1-1.37-.19-2.73-.29-4.13a7.59,7.59,0,0,1-2.91-1.68c0,2.3,0,4.46,0,6.62l3.2-.81Zm7.75,56.77c5.91-1.33,11.68-3,17.88-4.94a69.59,69.59,0,0,0,6.52-14.86c-4.78,3.74-15.85,8-23.5,10.71a88.24,88.24,0,0,1-.9,9.09Zm-99.66,49.7c-.13-5.7.8-9.08,3.59-11.33a22.64,22.64,0,0,1,4.15-6.46c-7.73,1.09-12.88,1.71-13.29,1.76a7.42,7.42,0,0,1-6.87-4.64,41.47,41.47,0,0,0-8.22,1,35.4,35.4,0,0,0-5,5.64c11.73.66,6.6-.06,24.7,6.81-20.11,7.22-10.54,4.57-28.58,8.47a6.5,6.5,0,0,1-3.5,0c-.13.41-.25.83-.38,1.24,17.72.9,9.44-.39,30.91,6.08-22.28,6.63-12.14,4.2-33,8.07,0,.13,0,.26,0,.38,9.59,1,22.4,2.26,32.12,5a164.65,164.65,0,0,1,3.27-22Zm2.42,24.09-.14.05v.08l.14-.13ZM892.72,923.1c-.06-1.73-.12-3.52-.19-5.35-4.68,2.33-12.08,5.17-23.27,8.4l.06.8c5.74-1.11,16.66-3.14,23.4-3.85Zm-21.65-11.38c6.93-.53,14.34-1.1,21.18-1.1-.13-3.34-.27-6.76-.41-10.33-6.82,4.18-16.52,9.15-20.77,11.43Zm20.47-18.88c-.09-2.4-.19-4.87-.28-7.35a94.5,94.5,0,0,1-24.68,10c.1,1,.2,2,.29,3,6.72-2,17.4-5,24.67-5.67ZM865.2,881.52c13.78-.57,14.23-3.67,25.84-1.8q-.15-3.9-.28-7.86c-6.8,3.63-21.82,7.07-24.75,7.9a8,8,0,0,1-1,0c.06.58.11,1.16.17,1.75Zm.06-16.37c6-.11,19-.2,25.34,1.83q-.21-6.9-.35-13.87c-17.61,8.29-10.9,5-25,12Zm-2.77-13.33c14.3-3.14,7.87-2.69,27.75.89-.07-3.67-.14-7.35-.19-11-15,5-8.86,3.47-27.86,6.12.1,1.33.19,2.66.3,4Zm-.81-18c19.35,1.74,13,.49,28.34,4.64-.07-9.11,0-18.08.26-26.64-7.63,1.59-21.53,2.61-29.65,3.08,0,.56,0,1.06,0,1.62,0,.87,0,1.77.06,2.67,10.56-1.74,17.94.11,29.09,4.7-13.41,8.92-15.31,3-28,9.9,0,0-.09,0-.14,0Zm-1.47-32.91c8.17,1.1,21.56,2.64,30.26,5.07.16-3.74.38-7.35.63-10.87-8.49,1.51-23.26,2.73-31,3.32,0,.8.06,1.65.1,2.48Zm9.91,140.45c0,.55,0,1.06.06,1.6,11.84-2.64,7.28-1.56,22.87-5.57,0-2.17-.07-4.49-.12-7-7.06,4.33-17.71,8.87-22.81,11Zm27-147.94c.46,14.49,2.38,29.65,4,41.65-.92-17.47-2.31-31.1-3.57-41.78-.18,0-.32.07-.41,0v.13Zm0-2.3.23.08c-.1-.73-.19-1.47-.27-2.17,0,.69,0,1.38,0,2.09Zm10-42.34a20,20,0,0,0-3.72,4.64c5.47-1.75,14.07-2.69,27.18-4.77-5.64-.1-11.73-.31-18.36-.65l-5.1.78Zm38-6.63c17.14-.6,27.88-3.23,34.46-9-1.73.3-3.46.62-5.27.87-7.32,3-17.9,5.76-29.19,8.14ZM978.44,720c3.14-.25,6.1-.63,9-1.11a58.18,58.18,0,0,0,1.18-8.15l-1.14.37a7.33,7.33,0,0,1-6.15-1.12,44.27,44.27,0,0,1-2.88,10ZM983,693.6c-.07,1.21-.15,2.33-.22,3.48a4.34,4.34,0,0,1,.71-.37c1.47-.13,3.36-.25,5.39-.39,0-1.5-.09-3.05-.16-4.64l-5.33,1.91c-.13,0-.26,0-.39,0Zm12.58,2.32c8.8-.57,18.92-1.42,24-3.41a2.8,2.8,0,0,1,.63.51,123.35,123.35,0,0,0,3-16c-7.17,4-18.86,8.77-27.81,12.17.09,2.31.16,4.56.19,6.73ZM994.77,676c9.72-2,21.34-4.29,29-4.77.43-4.89.67-10,.77-15.1-19.35,12-12.85,8.57-30,16.48.06,1.16.12,2.26.18,3.39Zm-6.85,1.45c0-.56-.07-1.13-.11-1.7l-.31.15a7.18,7.18,0,0,1-4-.14c0,.89,0,1.78,0,2.64l4.47-.95Zm-4.37-33.24a7.79,7.79,0,0,1,2-1.28c-.12-2.09-.25-4.2-.37-6.37l-.56.22a7.63,7.63,0,0,1-1.08,0c0,2.54,0,5.06,0,7.47Zm.32-51.32c0,1.21,0,2.4,0,3.56a.66.66,0,0,0,.23,0c0-1.19,0-2.38,0-3.59l-.24.06ZM982,488.94c0,.21,0,.43,0,.64h7.32c0-.52,0-1,.07-1.54-2.29.3-4.76.61-7.42.9Zm-9-93.59c.21,1.2.39,2.41.58,3.62,4.49,1,8.54,2.16,12.37,3.32q-.54-3.14-1.15-6.21a77.88,77.88,0,0,0-11.8-.73Zm-10.82-45.3c1.26,3.59,2.45,7.37,3.55,11.37,2.49.26,5.55.62,9,1.14a124.19,124.19,0,0,0-5.57-11.41c-2.19-.41-4.53-.76-7-1.1Zm-66.53-50.4c1.63.55,3.26,1.1,4.89,1.67a6.39,6.39,0,0,1,.13-.63c-1.62-.4-3.37-.7-5-1Zm28,9.06-2.81,0c4.8,1.87,9.08,3.63,12.65,5.19a102.85,102.85,0,0,0-9.84-5.23Zm34.81,26.82a94.94,94.94,0,0,0-6.86-7.49,67.37,67.37,0,0,1,5,8.56,7.32,7.32,0,0,1,1.81-1.07Zm22,42.69c-4.11-.79-7.93-1.45-11.07-1.77.33,1.49.67,2.94,1,4.48a7.56,7.56,0,0,1,2-.47c3.6.71,6.62,1.37,9.28,2-.4-1.42-.74-2.87-1.16-4.27Zm7.22,36.38-12-.87c.1.81.2,1.65.3,2.46a7.24,7.24,0,0,1,3.15.57c3.92,1.35,6.8,2.32,9.1,3.1-.19-1.77-.39-3.52-.59-5.26Zm1.61,18.06c-2.52-.34-6-.89-11.56-1.64.16,1.49.31,3,.46,4.48a8.38,8.38,0,0,1,1.11-.22c3.14.26,6.6.52,10.18.86-.07-1.16-.12-2.33-.19-3.48Zm-9.76,17.49c0,.43.07.84.11,1.25.08,0,.16,0,.25,0,4.82,1.43,7.91,2.3,10.12,2.93,0-1.44,0-2.88-.07-4.31-3.87-.08-7.45-.07-10.41.14ZM983.42,529c0,1,0,2,.05,3l3.59-.13c.07-1.27.15-2.55.23-3.82l-3,.88a7.18,7.18,0,0,1-.9.12Zm.31,17.35c0,1,0,2,0,3a7.57,7.57,0,0,1,2.24-.61l.18-3-2.46.57Zm.2,16.33,0,0v0Zm.37,14.55-.37-.06v.2l.37-.14Zm-.57,32.71c-.06,4.78-.1,8.78-.12,11.85l.89-.16c-.1-2.51-.2-5-.28-7.58,0-1.37,0-2.79-.07-4.17l-.42.06Zm8.68,23.82c.12,2.47.23,4.88.35,7.26,19.8-4.53,12.53-3.5,31.65-5-.2-6.14-.52-12.35-.86-18.58-19.36,12.6-12.59,9.26-31.14,16.34Zm-.52-13.57c15.68-3.09,9.8-2.07,31.56-4.76-.35-5.81-.71-11.62-1-17.41-4.66,3.18-13.63,7.24-30.8,10.56,0,1.76,0,3.57.07,5.32.06,2.15.13,4.19.21,6.29Zm-.27-24.68c8.89-1,22.91-2.62,30.46-3.14-.38-6.9-.71-13.73-.89-20.4-15.63,9.49-10.12,6.22-29.47,17.3-.05,2.09-.07,4.17-.1,6.24ZM1006,569.58c3-.58,6.81-.94,15.11-2,0-2.48-.06-5-.05-7.38-9.31,5.84-12.19,7.93-15.06,9.39Zm-6.19-9.74c5.09-.84,6-.7,21.25-2,0-2.61,0-5.14.06-7.71-13.16,7.44-11.17,6.89-21.31,9.67Zm-6.15-11.9c15.38-1.38,10.23-1.09,27.5-1.22,0-3.64,0-7.21.06-10.77-6.71,2.56-18.31,5.69-27.3,7.95-.09,1.35-.17,2.69-.26,4Zm1.05-16.52c9.28-.48,20.07-.88,26.53.4q0-8,0-15.68c-6.61,3.08-17.82,6.83-26.19,9.47-.13,1.94-.25,3.88-.38,5.81Zm14.17-20.12a120.4,120.4,0,0,1,12.4-.15q0-3.63,0-7.18a41.49,41.49,0,0,1-12.38,7.33Zm-10.66-9.89c7.69.49,15.37,1,23,1.75,0-3,0-5.92-.06-8.84-3.43,2.51-13.77,5.14-23,7.09Zm22.33-9.79a2.24,2.24,0,0,1,.63-.18q-.18-21.92-.86-41c-5.95.46-14.31.1-22.46-.21,0,2.26,0,4.53,0,6.8,2.18.95,5.39,2.46,11.91,5.32-6.14,1.49-9.59,2.43-11.95,3,0,.24,0,.46,0,.68,8.17.55,16.85,1.51,20.76,3.53l.22.3c-.42,2.47-7.15,4.68-14.67,6.45,5.25.6,9.64,1.18,10.73,1.59,0,.46-.23.8.28,1.08.23-.22.27-.9.32-1.14,2.15-1.16,8,4.34-18.26,8.94,0,.9-.07,1.81-.11,2.71,6.4,0,5.83.22,23.43,1.89v.19ZM997.5,437c7.78,1,15.7,2.63,22.51,5.64q-.59-13.41-1.47-25.44c-14.56-1.32-18-1.66-22.56-2,.26,2.5.46,5.05.66,7.59,3.2,1.25,6.17,2.74,19.35,8.55-10.78.92-15.49,1.53-18.67,1.75.06,1.3.13,2.61.18,3.93Zm20.94-21c-.91-11.91-2.08-22.9-3.59-33-4.12,1.09-14.5-.9-25.05-3,.48,1.8.91,3.62,1.33,5.44,5.82,2.37,10.72,5.57,19.7,11.15v0c-8.38,1.66-13,1.52-17.29.87.44,2.54.89,5.06,1.24,7.63a150.19,150.19,0,0,1,23.66,10.84Zm-33.59-51.67c10.88,2.32,22.49,6.08,28.93,12.05-.77-4.49-1.62-8.78-2.53-12.91-11.38-3.67-20.25-7.13-30.88-9.89q2.45,5.24,4.48,10.75Zm-13.69-26.9c16.5,4.65,26.08,9.16,38.37,18.86a163.17,163.17,0,0,0-6.5-20.14c-2.2,0-5.27-.3-7-.31a1.24,1.24,0,0,1,0-2.48c-9.92-2.3-22.27-4.57-32.81-6.34a106.91,106.91,0,0,1,8,10.41Zm-37.44-63.2c-1.18,1.51-4.35,3.17-8.61,4.86,13.29-.11,26.35,2.16,37.35,8.14a146.49,146.49,0,0,0-28.74-13Zm-35.4,1.09c11-1.21,23.06-2.47,30.06-2.8q-8.6-2.67-18.24-5c-3.56,2.55-7.59,5.24-11.82,7.78ZM866,285.23a7.3,7.3,0,0,1-2.71-6.43c-2.15,1.78-4.2,3.48-6.11,5l8.82,1.39Zm-52.1-7.87,2.67.38a7.36,7.36,0,0,1,3.43-4.17c2.81-1.67,16.73-12,26.84-17.18q-9-1.24-18.57-2.5c-3.46,6.61-9.56,16.12-14.37,23.47Zm-16-2.28c5.3-5.64,14.21-16.62,22.91-22.15L808,251.32c-5,14.12-3.35,10.42-10.72,23.68l.62.08ZM623.47,264.36l-9-.89c-.34.64-.7,1.36-1,2,4.18.38,8.32.77,12.39,1.16a7.38,7.38,0,0,1-2.3-2.32ZM159.66,219c-3,.55-6.06,1.14-9,1.75-1.28,2.73-5.91,12.14-10.67,21.79l.63-.08c7.22-8.8,11.21-16.38,19.06-23.46ZM125,244.75c5.49-7.86,12.12-16.71,17.66-22.26q-9.06,2.08-17.34,4.56c-4.7,6.83-9.62,13.51-14.61,20.15,4.62-.87,9.4-1.67,14.29-2.45Zm-31.42.85c5.41-4.91,9.43-8.93,13.62-12.18a125.39,125.39,0,0,0-20.37,10.36,41,41,0,0,1,6.75,1.82Zm-5.78,18.91c.35.13.64.25,1,.4-.12-.18-.26-.37-.39-.55l-.6.15ZM72.16,295c.28.65.46,1.27.69,1.91.5-.72.93-1.47,1.44-2.17-.7.1-1.42.2-2.13.26ZM59,298.55c-.09-.29-.19-.64-.27-.94l-.24,1.09c.18,0,.32-.13.51-.15Zm21.91-17.06a16.33,16.33,0,0,1,1.65,4.09,80.35,80.35,0,0,1,12.08-9.76A30.39,30.39,0,0,1,85,273.49c2.59,6.92.43,8.77-4.11,8Zm17-19.51c2,4,3.15,7.85,2.48,10.47A101.58,101.58,0,0,1,114.27,266a7.44,7.44,0,0,1,.36-5.71l1.34-2.06q-9.42,1.76-18,3.79Zm64.48-10.37c-.89,1.92-1.66,3.54-2.34,5,2.76-.28,5.58-.53,8.44-.78A7.25,7.25,0,0,1,168,251q-2.8.27-5.55.57Zm25.12,2.74a7,7,0,0,1-1.12-.36,7.51,7.51,0,0,1-2.28-2.05c-.57,1-1.14,1.9-1.7,2.77,1.69-.12,3.37-.25,5.1-.36Zm240-.64,13,.53c.93-1.43,1.78-2.79,2.55-4l-13.63-.73-1.94,4.2ZM411.49,253c.4-.61,1.31-2.16,2.53-4.23l-6.41-.3c-.62,1.68-1.18,3.17-1.68,4.49l5.52.17s0-.09,0-.13Zm-19.81-3.75c.13-.21.43-.75.8-1.43l-7.6-.28c-.62,1.4-1.29,3-2,4.73l7.81.21a7.22,7.22,0,0,1,1-3.23Zm-23.5,2.66c.95-1.76,1.86-3.38,2.66-4.87l-11.43-.34-1.89,5,10.66.24Zm-73.67-6.17q-4.86,0-9.67,0c-.54,1.6-1.14,3.41-1.8,5.41l8.33,0c.84-1.43,1.92-3.29,3.14-5.4Zm14.65.06c-.73,1.9-1.42,3.68-2.07,5.32l8.2,0a7.36,7.36,0,0,1,.9-5.31l-7-.05Zm32.56,5.6c.51-.85,1.46-2.62,2.8-5.09l-12-.24c-.73,1.61-1.62,3.36-2.58,5.21l11.82.12Zm-28.49-16.7c3.17,0,6.38.07,9.58.13,4.55-9.4,6.59-18.69,9.88-25.2-22.49-.5-44.85-.57-66.56,0A69.48,69.48,0,0,1,263,234.71c4.31-.06,8.64-.11,13-.14,5.93-10.4,3.59-6.57,16-22.74-1.76,16.6-1.3,16.93-3.24,22.68,4.06,0,8.17,0,12.28.06,6.46-10.89,13.77-22.15,16.78-21.71h.08c1.44,2.43-1.23,12-4.64,21.81Zm-48.76-25.07q-11.78.31-23.25.86c-3.06,17.13-3.29,19.72-4.65,24.84,4.47-.13,9-.26,13.55-.36,5.21-10,11.38-21.37,14.35-25.34Zm-20.28,36.82c-3.66.11-7.29.22-10.9.37-.47,1.59-1,3.33-1.54,5.38,3.2-.11,6.42-.21,9.7-.3.28-.58,1.28-2.55,2.74-5.45Zm14.75-.35c-.65,1.69-1.35,3.54-2.05,5.43,3.9-.07,7.83-.15,11.8-.2a7.44,7.44,0,0,1,.83-5.42c-3.55.05-7.07.1-10.58.19ZM571.37,262q14.58,1.11,28.45,2.33a7.2,7.2,0,0,1-.25-2.26l-5.47-.51a7.3,7.3,0,0,1-7.15.34,8,8,0,0,1-1.39-1.11q-6.48-.6-13-1.16l-1.2,2.37Zm5.89-12.32,7.43.7c2.15-3.41,7.89-12.28,13.74-20.91-4.12-.42-8.56-.87-13.28-1.37a150.73,150.73,0,0,1-7.89,21.58Zm22.39,2.12c1.94.18,3.87.39,5.81.57,12.86-16.49,7.59-10.36,21.63-25.38l-2-.35a7.35,7.35,0,0,1-7.5,4.74c-3-.27-6.3-.6-10-1-2.67,7.51-5.71,15.42-8,21.37Zm-21.51-24.43c-6.22-.65-12.87-1.35-19.91-2.06-3.9,14.38-3.43,13.33-6.81,22.08,3.84.32,7.69.67,11.51,1,4-6,10.13-14.9,15.21-21ZM557.27,258.3l-9.76-.81c-.32.83-.67,1.75-1,2.67,3.62.24,7.25.51,10.83.76a7,7,0,0,1-.06-2.62Zm-25.81-.3c.38-.63.66-1.13,1-1.72l-8-.62c-.39.86-.84,1.84-1.33,2.94,2.76.16,5.46.36,8.19.53a7.15,7.15,0,0,1,.07-1.13Zm-22.74-.29,2.07-3.08c-2.73-.2-5.44-.4-8.16-.58-.31,1-.64,2.1-1,3.24,2.36.14,4.72.27,7.06.42Zm-21.56-3.88c.14-.3.24-.55.38-.84l-8.55-.57c-.35,1.08-.76,2.29-1.19,3.57,3,.15,6,.3,9,.47a7.24,7.24,0,0,1,.38-2.63Zm-24.22,1.42,2-3.74-7.63-.45-1.58,3.85c2.43.1,4.83.21,7.25.34Zm-42.68-17c4.61-7.73,10.21-16.87,14.94-23.72q-8.47-.58-17.1-1.12c-.77,5.86-3.7,15.53-6.71,24.39l8.87.45Zm-7.2-25.16c-5.49-.34-11-.65-16.56-.95-4.37,17-4.31,18.31-7,24.66l8.69.38c4.55-8.25,10.48-18.54,14.83-24.09Zm-36.38,23.2c5.17-9.52,5-8.78,15.84-24.36-17.29-.9-34.79-1.64-52.26-2.1-2.3,10.47-1.57,16.62-3.79,25.27q7,.17,14.07.35c6.86-12.18,15.38-26.23,17.44-24.14v.06a8.24,8.24,0,0,1-.2.84c.28.06.32-.22.51-.36,1.43,3.39-1.48,13.8-5,24l13.34.46ZM239.61,210.55c-5,.25-9.9.55-14.78.87-1.58,6.77-4.2,16.08-6.71,24.61,2.1-.09,4.19-.19,6.31-.27,3.64-8.34,3.84-7.79,15.18-25.21Zm-20.24,36.83-4.7.23c-.62,2-1.17,3.83-1.61,5.31,1.31,0,2.61-.12,3.94-.19.88-1.95,1.66-3.74,2.37-5.35Zm-21.1,3.31c0-.06.41-.88,1-2.18l-1.69.11c-.32.83-.64,1.64-1,2.59a7.44,7.44,0,0,1-3,2.75c1.34-.09,2.74-.16,4.1-.24a7.7,7.7,0,0,1,.61-3Zm-37.08-23.07c1.9-2.69,4-5.11,8.31-10.26-1.91.31-3.77.63-5.65.95-.89,3.39-1.77,6.49-2.66,9.31ZM79.8,248.88a65.26,65.26,0,0,0-9,8.64,1.19,1.19,0,0,1,.16.08,30.69,30.69,0,0,1,5-2.06c1.87-.57,3.83-1.11,5.77-1.65a21.76,21.76,0,0,1-2-5ZM56.39,312.49A275.28,275.28,0,0,0,56,354.08c.58-14.9,3.1-28.82,8.2-41.23a37.1,37.1,0,0,1-4.44.55,7.26,7.26,0,0,1-3.38-.91Zm84.34,398.36c1,2.26,1.81,4.24,2.6,5.91a13.84,13.84,0,0,0,2.52,3.46q-2.72-4.51-5.12-9.37ZM65.81,433.44c14.18,81.83,40,174.86,59,232.94-10.41-39.61-15.92-85.26-27.57-125-9.38-32.06-22.49-70.15-31.44-107.89ZM160,728.58h0a6.16,6.16,0,0,0,1.16-.74,7.43,7.43,0,0,0,.17-10.52c-29.1-40.71-28.12-102.54-44.82-158.22-17.1-57.05-100.09-263.61,6.25-287,25-5.5,57.24-8.93,93.7-10.94a7.28,7.28,0,0,0,5.53,3.55,7.42,7.42,0,0,0,7.35-4.19c3.9-.17,7.8-.34,11.81-.48a7.31,7.31,0,0,0,2.22,2.42,7.45,7.45,0,0,0,10.33-2.07l.26-.75q17.88-.49,36.59-.65a7.34,7.34,0,0,0,3.7,3.62,7.42,7.42,0,0,0,9.57-3.68c12.71,0,25.63,0,38.66.2a7.12,7.12,0,0,0,11.59.14c4.82.07,9.66.17,14.52.26a7.38,7.38,0,0,0,5.35,2.63,7.3,7.3,0,0,0,5.62-2.39c5.45.12,10.89.27,16.34.41a7.45,7.45,0,0,0,4.05.11q6.15.17,12.29.36a7.16,7.16,0,0,0,2.6,2.27,7.33,7.33,0,0,0,8.88-1.91q7.8.26,15.56.55a7.24,7.24,0,0,0,13.38.5l8.51.34a7.32,7.32,0,0,0,4.17,5.34,7.45,7.45,0,0,0,9.81-3.83c.11-.35.2-.6.31-.93,9.76.42,19.46.85,29,1.3a7.41,7.41,0,0,0,13.46,6.18c.89-2,1.66-3.79,2.4-5.43l13.72.68a7.31,7.31,0,0,0,8.58.42c21.67,1.09,42.29,2.2,61.52,3.22a7.28,7.28,0,0,0,4.45.24c21.17,1.12,40.49,2.14,57.27,2.92l13.48,0c-14.24-1.8-30.07-3.56-47-5.24a7.43,7.43,0,0,0,2.67-1.82q5.91.58,11.77,1.2c.09.06.13.17.23.23a7.39,7.39,0,0,0,7.78.59q14.49,1.53,28.65,3.08a7.3,7.3,0,0,0,3.18,5.86,7.45,7.45,0,0,0,10.33-2.08c.36-.79.65-1.42,1-2.14,3.86.43,7.69.87,11.52,1.32a7.48,7.48,0,0,0,2.15,1.48,7.28,7.28,0,0,0,6.52-.47q11,1.29,21.69,2.6A7.33,7.33,0,0,0,754,278.94l7.2.91c.11.09.16.23.26.32a7.44,7.44,0,0,0,8.26.77l10.79,1.4a7.21,7.21,0,0,0,2.16,2.35,7.34,7.34,0,0,0,9.21-.84l4.78.65a7.69,7.69,0,0,0,1.46,1.83,7.37,7.37,0,0,0,9.71-.32q16,2.22,30.71,4.38a7.33,7.33,0,0,0,8.92,1.32q15.48,2.31,29.2,4.51c.45.17.91.32,1.37.48a7.37,7.37,0,0,0,9.39,3.36c4.79,1.75,9.6,3.56,14.28,5.37A7.32,7.32,0,0,0,907.9,309l2.69-.05c12.17,4.87,22.52,9.4,27.41,12.12,6.27,3.49,11.48,11.16,15.86,21.7a7.29,7.29,0,0,0,1.87,4.68c1.71,4.7,3.26,9.88,4.7,15.47a7.22,7.22,0,0,0,2.94,13q1.07,5.19,2,10.71a7.47,7.47,0,0,0-.26,1.5,7.14,7.14,0,0,0,1.07,3.41c.41,2.64.79,5.31,1.18,8a7.34,7.34,0,0,0-3.62,4.78,7.43,7.43,0,0,0,5.35,8.79c.26,2.24.52,4.49.75,6.75-.14.26-.37.44-.49.71a7.42,7.42,0,0,0,1.37,8q.63,6.86,1.16,13.87c0,.08,0,.15,0,.23a4.64,4.64,0,0,0,.11.51c.28,3.74.55,7.51.78,11.3a7.07,7.07,0,0,0,.53,9.09c.6,10.84,1,21.74,1.37,32.5a6.47,6.47,0,0,0-.19,1.32,8,8,0,0,0,.25,1c.21,6.82.36,13.58.47,20.22a7.44,7.44,0,0,0-.32,5.65,7.66,7.66,0,0,0,.41.68q.06,5.21.1,10.28a6.77,6.77,0,0,0,0,8.41c.07,22.15-.21,41.8-.51,56.48a8.1,8.1,0,0,0-.63,1.12,7.5,7.5,0,0,0,.5,5.73c-.13,6.43-.25,11.56-.31,15-.45,27.28.38,47.45.28,62.46a7.34,7.34,0,0,0-.14,3.37c0,.07.06.12.08.22-.73,37.11-9.26,39.52-66,40.35C822,729.7,845.27,816.87,855.6,888.14c0,.16-.11.29-.13.47a7.48,7.48,0,0,0,.67,3.32c.62,4.41,1.16,8.76,1.63,13a7.32,7.32,0,0,0,.45,4.39c.27,2.87.5,5.7.67,8.48a6.92,6.92,0,0,0-.3,2.14,7,7,0,0,0,.5,1.94c.41,9.68.06,18.62-1.56,26.39-20-24-93.27-171.59-105.52-196.35l8.52-.3a7.45,7.45,0,1,0,0-14.89c-6.41.2-16.65.65-29.93,1.24-5.5-12-10.72-23.73-15.58-35.17,4.24,11.89,8.89,23.62,13.86,35.25-121,5.48-484.59,23-568.89-9.49ZM869.1,961.31c7-3.09,19.3-8.49,23.82-13.44.11-2.2.16-4.9.16-7.91-11.77,13.56-6,8.94-23.45,17.66-.14,1.34-.32,2.55-.53,3.69ZM988.81,733.36a51.92,51.92,0,0,0,9.93-5.63,70.44,70.44,0,0,1-8.34,3,29.2,29.2,0,0,1-1.59,2.66Zm35.8-79.26c.07-5.06,0-10.19-.13-15.41-15.8,11-8.46,6.55-30.93,16.74.07,1.18.14,2.3.21,3.46,13.81-3.66,8.79-2.49,30.85-4.79ZM984.79,305.75a91.3,91.3,0,0,0-14-12.88,46.81,46.81,0,0,1,3.85,3.49c-4.34,2.61-7.91-2.81-11.94-3.7v.06l.14.06c-11.82,3-23.45-7.91-55.38.5,1.16.34,2.3.67,3.44,1,43.62,3.16,64.44,7.63,73.9,11.44ZM918.12,260l0,0,0,0v0Zm-46.36,12.25c.06,0,11.27-4.1,23.2-7.93-3.85-.78-7.81-1.52-11.89-2.25-3.31,2.95-7.51,6.54-11.88,10.21a5.3,5.3,0,0,1,.57,0ZM840,278.85c15.13-9,25.7-14.73,33.23-18.5q-8.67-1.41-18-2.77C850.76,263.87,841,273.65,834,280.3l3.74.56a7.4,7.4,0,0,1,2.22-2Zm-37.16-28.17L789.53,249c-4,7.4-9.48,16.68-13.32,23.08l5.75.79c14.37-16.89,10.47-13.31,20.88-22.23Zm-42.41,19c.47-.52,10.43-12.62,19.53-21.83l-12-1.47c-6.62,17.22-4.7,13.42-9.9,23.33l2.23.3c.08-.1.09-.22.17-.33Zm-15.2-26.12c-4.43-.56-8.91-1.11-13.47-1.7-3.06,12.19-2,8.77-8.09,23.52l2.13.26a7.23,7.23,0,0,1,1.12-4.2c13.15-14,9.25-10.58,18.31-17.88Zm-19.55-2.49-13.89-1.82c-4.52,13.22-3.54,10.76-9.54,23.56l6.53.76c11.65-17.22,9-14.61,16.9-22.5ZM688,261.16c11.45-16.36,8.74-13.64,18.13-22.65q-7.56-1-15.36-2.08c-5.7,17.33-3.13,13.16-11.49,23.73l8.72,1Zm.46-25.05q-8.4-1.16-17.07-2.4c-4.67,14.68-3,10.62-10.25,24.42.75.1,1.5.18,2.26.26a7.36,7.36,0,0,1,3.67-4.55c13.61-11.9,7.41-6.74,21.39-17.73ZM666.73,233q-8.46-1.22-17.17-2.52c-5.15,16.21-3.42,11.85-9.62,25.34l5.53.59c15-18.2,10.3-13.63,21.26-23.41ZM625,254.31c12.85-17.62,8.16-12.54,20.85-24.35l-6.71-1c-3.91-.6-7.36-1.16-10.58-1.71-4.29,18.48-2.77,15-9,26.52l5.46.55ZM554,224.87c-12.82-1.31-26.84-2.69-41.75-4.07-2.21,9.32-2.37,9.63-6.42,22.89,3.94.29,7.88.61,11.82.9,2.71-3.62,5.1-5.77,16.92-18.79-3.46,11.22-4.88,16.29-5.94,19.67,3.26.26,6.51.52,9.75.8,7-12.08,5.36-9.77,15.62-21.4Zm-61.63,17.82c6.88-14.95,7-15.93,11.54-22.65-4.68-.43-9.42-.86-14.26-1.28-4.8,16-5.15,17.34-7.12,23.25,3.29.21,6.57.45,9.84.68ZM217.61,211.93q-9.15.7-18,1.6c-1.35,4.95-3,10.23-5,15.44,1.79-1.87,4.39-4.13,11.47-10.94-2.56,13.78-2.38,14.94-3.82,18.82l2.4-.14c3.79-8,8.64-17.75,12.91-24.78ZM110.07,342.37c-4.54-2.45-2.16-.63-8.93-1.26L97.7,344c-.07,2.71.2,3.65-.31,6.15a7.45,7.45,0,1,0,12.68-7.82Zm7.24,44a7.47,7.47,0,0,0-2.43-10.25c-13.66-6.74-15.66-9.69-28.21-17.46l0,0c4.78,18,6,18.15,20.41,30.12a7.43,7.43,0,0,0,10.25-2.43Zm12,32.33a7.43,7.43,0,0,0-2.82-10.13c-19.89-10-9.84-6-30-12.14,12.5,17.67,5.1,9.15,22.72,25.1a7.45,7.45,0,0,0,10.15-2.83Zm4.25,29.73A7.44,7.44,0,0,0,133,438c-5.79-3.06-24.73-12.07-32.37-12-3.84,4.52,19.73,20.76,22.46,23.15a7.43,7.43,0,0,0,10.52-.62Zm11.8,30A7.44,7.44,0,0,0,143.83,468c-29-16.42-13.93-9.45-45.26-20.92h0C122.14,470.21,110,459.27,135,480a7.43,7.43,0,0,0,10.41-1.55Zm9.18,22.11a7.44,7.44,0,0,0-6.73-8.09c-29.13-15.67-13.92-7.61-45.67-24.14,25.39,29.28,10.78,16.13,44.31,39a7.43,7.43,0,0,0,8.09-6.73Zm3.73,51.34a7.45,7.45,0,0,0-1.52-10.42C137.57,524.7,136,514.38,116.14,502c11.77,24.12,13.36,30.48,31.76,51.49a7.43,7.43,0,0,0,10.41-1.54Zm9.42,26.94a7.43,7.43,0,0,0-3.15-10.05c-4.94-2.53-39.2-21.72-43.79-22.36-6.92,2.59,36.56,35.31,36.89,35.56a7.46,7.46,0,0,0,10-3.15Zm14.11,28.73a7.45,7.45,0,0,0-5.59-8.93c-20.68-6.9-18.87-13.28-40.46-15.49,14.81,14.89,18,19.79,37.11,30a7.45,7.45,0,0,0,8.94-5.58Zm7.49,39a7.45,7.45,0,0,0,1.59-10.41c-16.77-11.45-33.19-17.92-51.51-26.63,14.46,22.21,19.82,19.56,39.51,35.45a7.45,7.45,0,0,0,10.41,1.59Zm10.28,16.93a7.45,7.45,0,0,0-7.28-7.62c-28.29-8-13.57-3.58-44.12-13.24,25.9,23,11.37,13.56,43.78,28.13a7.46,7.46,0,0,0,7.62-7.27Zm3.13,29.43a7.46,7.46,0,0,0-2.7-10.19c-26-10.67-13.19-6.38-38.39-13.21,18.3,18.93,8.09,10.13,30.91,26.09a7.46,7.46,0,0,0,10.18-2.69Zm5.54,19.59c-15.38-7.23-26.42-10.3-41.46-17.65,2.9,14.61,19.79,20.47,33,29.93a7.45,7.45,0,0,0,8.43-12.28ZM962.47,475.22a7.48,7.48,0,0,0,4-9.74c-9.15-11.58-3.7-6.19-16.71-15.77.62,15.72-.63,8.61,2.94,21.46a7.47,7.47,0,0,0,9.73,4.05Zm3.87,24.64a7.44,7.44,0,0,0,2.07-10.33c-9.47-7.9-4.17-4.74-16-9.31.89,12.61-.46,6.78,3.62,17.58a7.45,7.45,0,0,0,10.33,2.06Zm4,24.54A7.47,7.47,0,0,0,971.74,514c-12.91-10-5.74-6.59-21.42-10.46,6,13.68,2.8,7.19,9.61,19.53a7.43,7.43,0,0,0,10.44,1.38Zm-25.23-.75c3.78,8.43,7.29,12.72,11.65,23.37a7.44,7.44,0,1,0,12.91-7.41c-6.59-8.16-13.33-18-24.56-16Zm-5.92,13.92,0,.1c-1.13,6.28,11.83,22.73,16,28.9a7.44,7.44,0,0,0,12-8.76c-1.86-1.66-24.28-23.06-28-20.24Zm15.57,48.92A7.44,7.44,0,1,0,965,575.64c-10.54-6.42-14.1-7.38-25.78-11.13,5.61,16.24,5,9.89,15.59,22Zm-.57,26a7.44,7.44,0,1,0,9.27-11.65c-10.89-8.34-19.69-17.1-30.5-25.21,2,16.21,10.48,24.78,21.23,36.86Zm1.63,25.93a7.44,7.44,0,1,0,7.55-12.83c-15.76-11.61-7.52-6.52-24.71-15.31,7.82,19,2.48,9.43,17.16,28.14Zm1.28,21.73a7.44,7.44,0,1,0,6.55-13.37c-13.93-5.72-6.57-2.91-22.15-8.31,7.52,16.68,2.28,9.48,15.6,21.68Zm-4.33,21.2c-1.73-6.91-12.38-14-16.44-24.52,12.27.77,24.23,9.73,30.61,19.95a7.44,7.44,0,0,1-4.79,9.37,7.61,7.61,0,0,1-2.62.3l1.89.4a7.44,7.44,0,1,1-3.65,14.43c-13.07-9.56-8.06-3.93-15.76-16.27,11.88,0,8.31-.56,15.73,1A7.28,7.28,0,0,1,952.8,681.35Z"/></svg>