<svg width="343" height="260" viewBox="0 0 343 260" fill="none" xmlns="http://www.w3.org/2000/svg">
<path d="M296.869 39.3758C278.233 20.4039 252.876 10 226.297 10H143.2C116.621 10 91.2642 20.4039 72.6284 39.3758L39.3284 72.7295C20.3872 91.3953 10 116.793 10 143.415V159.939C10 215.324 54.6037 260 109.9 260H243.1C298.091 260 343 215.324 343 159.939V126.585C343 99.9633 332.613 74.5655 313.672 55.8996L296.869 39.3758Z" fill="#FF2DB4" fill-opacity="0.75"/>
<path d="M286.869 29.3758C268.233 10.4039 242.876 0 216.297 0H133.2C106.621 0 81.2642 10.4039 62.6284 29.3758L29.3284 62.7295C10.3872 81.3953 0 106.793 0 133.415V149.939C0 205.324 44.6037 250 99.9 250H233.1C288.091 250 333 205.324 333 149.939V116.585C333 89.9633 322.613 64.5655 303.672 45.8996L286.869 29.3758Z" fill="#000096" fill-opacity="0.75"/>
</svg>
