<svg width="361" height="253" viewBox="0 0 361 253" fill="none" xmlns="http://www.w3.org/2000/svg">
<path d="M296.766 23.7761C281.582 8.59702 261.021 0 239.521 0H131.479C109.979 0 89.4184 8.59702 74.2335 23.7761L33.7852 64.209C2.20597 95.7761 2.20597 147.09 33.7852 178.791L74.2335 219.224C89.4184 234.403 109.979 243 131.479 243H279.969C324.717 243 361 206.731 361 162V121.433C361 99.9403 352.4 79.3881 337.215 64.209L296.766 23.7761Z" fill="#FF2DB4" fill-opacity="0.75"/>
<path d="M286.766 33.7761C271.582 18.597 251.021 10 229.521 10H121.479C99.9786 10 79.4184 18.597 64.2335 33.7761L23.7852 74.209C-7.79403 105.776 -7.79403 157.09 23.7852 188.791L64.2335 229.224C79.4184 244.403 99.9786 253 121.479 253H269.969C314.717 253 351 216.731 351 172V131.433C351 109.94 342.4 89.3881 327.215 74.209L286.766 33.7761Z" fill="#000096" fill-opacity="0.75"/>
</svg>
