<svg id="Layer_1" data-name="Layer 1" xmlns="http://www.w3.org/2000/svg" viewBox="0 0 1080 1080"><defs><style>.cls-1{fill:#fff;fill-rule:evenodd;}</style></defs><title>myth-busters__bubble_2</title><path class="cls-1" d="M1045.93,385.46c-2.53-31.32-12.23-57.57-27.51-79.62-5.76-12.16-11.91-21.59-18.19-27.33-11.79-10.78-27.07-20.08-45.06-28.14C838,184.45,633,192.21,490.49,194.29c-158.09,2.31-274.08,13.14-351.77,49.39C38.55,267.74,10.44,319.5,16.44,452.44q-.71,22.53.66,47.68c.49,66.68,3.42,170.09,39.39,199.71,10.33,45.58,41,29.56,247.78,31.22,133,1.06,130.39,116.71,256.52,135.17,117.93,17.25,38.58-102.82,70.73-123.58,29.79-19.24,91.84-18.58,166.07-24.66,89.24-.21,185.76-3.42,221.09-30.4,84.41-64.45,34.12-217.5,27.25-302.12ZM834.84,218.15h0c-152.58-24-361.14-15.27-493.41-10.91,44.62-3.35,94.14-5,149-5.59,99-1.1,233.84-5.71,344.45,16.5Zm-568.07-2.92h0a6.51,6.51,0,0,0-.14,1.08c0,4.05,4.34,7.33,9.68,7.33,157-2.62,601.18-36.45,710.87,63.1,41.5,37.66,78.71,263.49,21,352.7,28.63-82.4,12.39-280.34-16.77-330.28-60-102.72-429.93-91.55-546.7-89.63-70.21,1.15-74.48,1.63-118.23,6.11a11.21,11.21,0,0,0-7.13-2.4c-59.26,3.44-107.95,7.34-147.64,13.88,27.62-9.55,59.3-16.64,95.09-21.89ZM971.86,670.81h0c-31.16,12.28-62.3,20.43-92.59,26.08-125,7-295.59-41.66-298.07,71C579,868.26,559.58,801.39,418.37,712,336,659.89,100,733,86.42,641.33,70.5,533.71,32,447.8,68.68,354.57c.85-2.06,1.7-4.11,2.6-6.22,8.73-20.37,21-41.11,38.13-62.53a5.94,5.94,0,0,0,0-8.59,134,134,0,0,1,9.57-11c43-14.91,106.64-23.09,200.34-28.35,5.34,0,9.68-3.28,9.68-7.33a6,6,0,0,0-1.31-3.63c158.12-7.1,511.78-5.06,616.61,46.67,89.2,44,75,339.11,46.71,378.42a83.2,83.2,0,0,1-18.13,18.33c-.34.14-.66.31-1,.45Zm-745.67,43h0c-95.52-5.22-141.4-10.49-163.55-28.2-1.49-10.94-2.65-24.79-4.93-42.24a165.06,165.06,0,0,0,19.46,22c8,12.69,21,21.3,37.35,27.09a229,229,0,0,0,22,10.81c-5.21-2.81-10.11-5.64-14.85-8.49,80.18,23.34,228.13-10,287,27,17.22,10.85,33.78,22.9,49.45,34.89-88.75-63.82-33.29-32-231.9-42.87ZM52.45,609.8h0c-4.85-26.16-8.93-48.41-11.74-68.6-.19-4.68-.41-9.46-.69-14.42-1-18.44-2.1-35.64-3-51.77,0-.58.05-1.15.09-1.73C43,525.81,59.32,580.2,68.93,642.75a61.62,61.62,0,0,0,3.72,13.8,161.75,161.75,0,0,1-15.76-19.31c-1.17-8.36-2.6-17.46-4.44-27.44ZM600.16,848.47h0c-8.86-3.89-22.62-11.93-36.17-20.32,19.7,3.47,31.33-11.74,32.07-60.41.22-13.88,3.36-24.88,8.85-33.62-.14,18.41-.32,82.72-4.75,114.35Zm36.59-137.73h0c37.8-13,97.4-6.66,159.09-3.31-63.32-.78-123.7-3.23-159.09,3.31ZM110.37,269.45h0c-1.58,1.77-3.15,3.6-4.73,5.55a12.3,12.3,0,0,0-5.79-.68c.37-.28.71-.59,1.07-.86,3-1.39,6.17-2.72,9.45-4ZM69,294.11h0A179.75,179.75,0,0,0,47,325,91.65,91.65,0,0,1,69,294.11ZM36.58,365.42h0c11.11-33.93,28.61-60.95,52.82-82.48C49.31,335.7,35.62,383.66,34.88,431.77c-.87-25.27-.69-47.25,1.7-66.35Zm5.18,232.85h0c.71,4.12,1.45,8.3,2.21,12.6L45,617c-1.1-2.26-2.15-4.54-3.14-6.86,0-3.77-.08-7.74-.1-11.82Zm.21,19h0c1.39,2.85,2.89,5.64,4.44,8.42,3,19.49,4.68,35.47,6.21,48.58-8.24-13.22-10.13-31.39-10.65-57ZM67.54,706.4h0c25.93,12,65.71,16.47,109.47,18-77.78,2-100.54,2.75-109.47-18ZM563.2,856.9h0C451,840.81,445.32,743.91,339.73,725.74c33.21,1.42,59.85,5.11,73.11,14.25,2.86,2,124.57,97,177.69,117.42-7.14,1.14-16,1.11-27.33-.51Zm59.28-121.83h0a25.85,25.85,0,0,0-3.39,2.66,46.22,46.22,0,0,1,.83-6.65c1.62-7.16,19.59-10.47,47.15-12-17.73,3.4-32.84,8.3-44.59,16ZM1024,666.28h0c-21.25,23.44-64.39,33.92-115.21,38.37,22.62-3.69,43.59-10.12,61.68-20.71,3-1.09,5.92-2.16,8.87-3.31,45.81-17.94,67.13-75.67,72.94-142.32C1055.26,588.83,1050.56,637,1024,666.28Z"/></svg>