<svg width="334" height="243" viewBox="0 0 334 243" fill="none" xmlns="http://www.w3.org/2000/svg">
<path d="M271.039 35.577L239.675 19.9813C226.568 13.4311 212.213 10 197.545 10H125.455C100.489 10 76.615 19.9813 58.9826 37.6044L27.6188 68.9518C9.98647 86.575 0 110.436 0 135.39V148.958C0 200.892 42.1304 243 94.0913 243H219.546C260.116 243 296.005 217.111 308.8 178.746L318.319 149.582C332.986 104.978 312.857 56.4752 271.039 35.577Z" fill="#FF2DB4" fill-opacity="0.75"/>
<path d="M281.039 25.577L249.675 9.98126C236.568 3.43106 222.213 0 207.545 0H135.455C110.489 0 86.615 9.98126 68.9826 27.6044L37.6188 58.9518C19.9865 76.575 10 100.436 10 125.39V138.958C10 190.892 52.1304 233 104.091 233H229.546C270.116 233 306.005 207.111 318.8 168.746L328.319 139.582C342.986 94.9779 322.857 46.4752 281.039 25.577Z" fill="#000096" fill-opacity="0.75"/>
</svg>
