<svg id="Layer_1" data-name="Layer 1" xmlns="http://www.w3.org/2000/svg" viewBox="0 0 1080 1080"><defs><style>.cls-1{fill:#fff;fill-rule:evenodd;}</style></defs><title>myth-busters__bubble_1</title><path class="cls-1" d="M989.92,181.76c-16.49-23.76-100.09-44.21-149-54.18q8.1.15,16,.25a6.62,6.62,0,0,0,0-13.24C704.39,113,482.12,98.14,338.12,125.69c-58.27,11.14-214,30.41-251.16,74.83-11.06,13.22-20.63,37.72-28.28,69.21-.65,1.44-1.31,2.81-2,4.29C5.3,389.1,3.72,489.09,36,606.94c11,40.25,27,71.3,46.71,95.21A108.67,108.67,0,0,0,97.7,722c99.09,101.6,444.36,53.74,567.6,66.35,18.09,7.3,32.89,19.43,43.18,39.89,10.61,28.4,8.72,62.37,12.61,86.74,5.19,49,14.32,81.57,41.52,21.17,99.15-220.13,58.46-90,219.62-159.59,57.2-24.68,74.67-82.43,76.1-147.48,23.47-147.68-17-373.29-68.41-447.34Zm1.85,186.3a6.62,6.62,0,0,1,6.63-6.62c3.24,2.51,2.13.48,5.26,3.75l-.64,4.21-.06.07-3.5,2.28c.11,1.28-.1.69.61,1.76l-1.67,1.17a6.62,6.62,0,0,1-6.63-6.62Zm-7-21.36a6.62,6.62,0,0,1,4.2-8.37c8.21,1.09,4.4-.43,11.28,4.9-4.72,6.21-2.21,3.8-7.1,7.66a6.63,6.63,0,0,1-8.38-4.19Zm-9.06-23.23a6.61,6.61,0,0,1,6.61-6.62c9.58,2.69,4.92.59,13.79,6.62-8.87,6-4.21,3.93-13.79,6.61a6.61,6.61,0,0,1-6.61-6.61Zm-6-21.61a6.62,6.62,0,0,1,6.62-6.62c9.7,2.17,4.77.65,14.71,4.78-8.8,7.92-3.84,5.18-14.71,8.46a6.62,6.62,0,0,1-6.62-6.62Zm1.95-25.95c11.17-.57,5.62-1.2,16.6,2l0,.06c-7.68,8.34-3.6,5.07-11.89,10.28a6.62,6.62,0,1,1-4.74-12.36Zm-5.9-22.36c11.43-.81,5.61-1.18,17.47,1.42-8.36,9-3.51,5.06-14.72,11.53a6.62,6.62,0,1,1-2.75-12.95Zm-18.36-9.31a6.62,6.62,0,0,1,4.72-8.08c5.14-.38,25.86-3.33,29.25-1l0,.08c-.49,1.52-.11.91-1,1.91l.16-.07C964,246.88,972.45,243,955.48,249a6.61,6.61,0,0,1-8.08-4.72Zm-5.23-14.84a6.62,6.62,0,1,1-.63-13.22c11.94.72,5.33-.33,19.62,4.28v.07c-12.74,7.5-6.35,4.69-19,8.87Zm-38-26.24a6.62,6.62,0,1,1-8.22-10.38c12.52-8,14.21-11.38,28.93-11.36h0c-6.67,7.29-13.86,14.6-20.72,21.74ZM874,193.7a6.62,6.62,0,0,1-10.54-8c10.13-9.21,12.82-12.07,26.41-11.63-6.59,8.05-10.1,10.54-15.87,19.63ZM848.69,186a6.62,6.62,0,1,1-9.51-9.2c8.65-5.86,10.63-8,20.39-5.51h0c-3.64,5.5-7.14,9.25-10.88,14.71ZM980.92,714.2h0c5.12,18,3.13,13.75-3.13,31.13a6.62,6.62,0,0,1-12.15-5.26c8.24-12.59,8.52-11.54,15.26-25.87Zm-33.07,26.92c9.64-15.75,4-8.45,17-21.86-1.65,18.24-.05,9.93-4.15,25a6.62,6.62,0,0,1-12.85-3.17Zm-13.14,10.16a6.62,6.62,0,1,1-7.77-10.72c7.91-5.12,10.24-9.64,16.76-16.25,2.33,13.23-.25,16.81-9,27Zm-31.56-17.77c8.15,5.85-11.87,19.53-16.51,23.27a12.35,12.35,0,0,1-13.29-.42c-3.51-2.69-3.24-6.88.59-9.35,8.55-3.88,20.7-10,29.21-13.5Zm-44.48,16.56.14.18c3-.18,8.08-11.53,11.34-7.55.48,8.07,1.89,14.31-7,19.57a6.62,6.62,0,0,1-4.44-12.47l-.06.27Zm-18.14,17.29a6.62,6.62,0,0,1-4.21-12.55c11.39-3.27,10-5.82,16.81-10.27,7.93,7-8.2,19.83-12.6,22.82Zm-401.48-7.45h0a6.54,6.54,0,0,0-4.23,5.16q-12.24.51-24.54,1.14c4.68-4,8.49-5.73,15.14-10.94,65.12,2,128.84,4.71,179,13.11-21.31-.84-46.1-1.29-75.2-3.19-23.59-1.55-47.95-1.57-72.61-.88,1.41-1.35,3.47-3.44,7.62-7.35-17.26.58-8.87-.46-25.2,2.95Zm-115.12,5.74h0A6.73,6.73,0,0,0,321.6,770c-9.68.2-19.31.29-28.82.19,18.94-8.1,10.22-4,35.32-17.86l0,0c-37.95,4.68-20,1.31-54.06,9.82-4.5,1.45-6.59,4.52-5.44,7.37A418.8,418.8,0,0,1,210.34,763c6-2.56,11.61-6.63,13-13.42-4.8-2.47-9.35,2.26-18.12,1.69a6.61,6.61,0,0,0-5.93,7.24,6.26,6.26,0,0,0,.73,2.36c-4.45-1-8.84-2.12-13.17-3.33,8-5.17,8.53-4.36,10.77-14.38l0,0c-5.71,1-11.54,2.07-17.24,3.11a6.58,6.58,0,0,0-3.65,8.27c-29-9.43-55.16-24.07-77.22-46.25C77.8,680.88,64,632.42,56.7,575.89c9.74,57.19,28.23,106.17,56.91,134.16,22.66,22.12,75,32.36,139.52,37.78-3.1,1.31-7.69,3.41-17,7.34a6.62,6.62,0,1,0,7.49,10.92c19.15-12.46,15.48-9.63,25-17.06,36.19,2.56,75.62,3.86,115.52,5-14.52,3.92-7.71,1.15-23.13,10.44a6.63,6.63,0,0,0-2.6,4.28q-10.23.47-20.38.81c3.88-4.26,2.64-3,9.44-13.56-16.55,4.23-8.69,1-23.55,9.62ZM870.6,148h0c3.57.87,7.2,1.76,10.85,2.69l57.67,26.6a80.76,80.76,0,0,1,20.57,16.11c-24.38,4.33-12.42,1.52-36,8.42a6.61,6.61,0,0,0,4.18,12.55c22.81-12.23,12.25-5.22,31.87-20.93,40.32,42.92,51.89,132.33,57.39,178.1,14.64,122.14,28.6,245.39-20.25,358.76.39-10.2,1.55-24.38,1.43-32.07l-.81-.57-.76.5c-.12-.18-.07-.12-.16-.21-7.77,5.57-11.27,28.1-13.06,36a6.54,6.54,0,0,0,9,6.14c-.83,1.78-1.72,3.54-2.59,5.32a47.75,47.75,0,0,1-17.19,4.47c-13.93.93-36.37,1.87-60.77,4.7,7.94-7.47,10.74-11.42,10.62-23.39-7.89,5.38-10.47,9.4-18.81,13.49a6.63,6.63,0,0,0-2.63,9,6.51,6.51,0,0,0,1.76,2c-49.45,6.65-103.53,21.82-110.31,60.74-1.39,8-45.88,164.81-57.19,88.72-3.43-23-7.23-42-11.68-57.85-1.93-19.71-4-36.68-6.7-45.47-2.93-9.61-15.63-15.7-35.43-19.48a82.76,82.76,0,0,0-17.8-7.15c-129.87-51.37-477.24-7.76-543.07-72.41-85.63-84.13-75.14-372.48-10.25-475.42,50.31-79.81,649.69-74.2,753.75-73.85A6.53,6.53,0,0,0,870.6,148ZM386.39,754.13h0l22.59.65c-3.76,1.11-7.42,3.45-13.66,7.49a6.57,6.57,0,0,0-2,4.8l-17.68.9c4.46-4.7,3.26-3.51,10.78-13.84Zm311.79,41.29h0c5.84,2.57,9.6,5.79,10.82,9.83.77,2.54,1.47,5.54,2.12,8.88-1.35-2.57-2.78-5.11-4.4-7.57a79.5,79.5,0,0,0-8.54-11.14Zm33.19,130h0c6,14.79,13.76,15.38,22,7.83-.79,2.55-1.41,4.71-1.76,6.3-10.95.76-16.83-4.45-20.18-13.47l-.09-.66Zm72-109.34h0c1.69-10.07,8.41-18,18.35-24.47-6.09,7.36-12.73,17.81-19.44,29.87.46-2,.82-3.85,1.09-5.4Zm145.37-52.34h0c-31.63,8.24-61.45,9.47-84.81,11.8,27.71-6.53,59.73-9.45,84.81-11.8ZM1024.2,678h0C1046,593.28,1039,226.5,940,175.46l-57-24.4c22.1,5.6,45.14,12.21,63.31,19.07,16.26,8.51,30.38,19.16,41.59,32.37,9.77,17.24,18.76,39.44,26.71,65,13.65,77.17,28.14,244,33.11,291.77,1,9.74,1.82,19,2.48,27.91C1045.81,650,1033,702.76,1009.5,730c5.31-12.45,8.74-28.85,14.7-52Zm27.72-144.72h0c-5.77-44.59-13.7-86.91-16.56-119.07-3.56-40-5.9-75.08-9.53-105.58,16.24,67.73,26,149.75,26.09,224.65ZM341,137.53h0c126.37-23.88,317-14.45,463.58-10.75a6.29,6.29,0,0,0,6.26,8.4c2,.35,5,.89,8.7,1.6q-4.81-.33-9.76-.62c-47.15-2.74-100.28-1-147.87-.24,43.74.73,108.3-2.23,170.34,4.32-163.8-.51-680.71-.29-731.67,81.33-23.5,37.63-40,98.3-47.55,165C57.2,331.8,65.51,282,76.76,247.37,122.65,163.72,170.25,175,275.34,162c153.82-19,277.81-21.6,428.88-31.63C550.81,134.69,428.6,139,274.74,157.1c-30.24,3.56-55.83,5.25-78.07,7.77C251.25,151.6,312,143,341,137.53ZM95.87,208h0a50.41,50.41,0,0,1,6.58-6.31,141.27,141.27,0,0,0-10.32,11.39A58.21,58.21,0,0,1,95.87,208ZM43.48,605.14h0c-29.84-107.56-31.22-199.25,8.4-302.63C33.23,407.63,32.91,561.92,63,656.65a283.87,283.87,0,0,1-19.5-51.51ZM349.2,777.89h0c60-2.17,121.82-7.07,179.3-3.13,17.78,1.22,35.11,1.52,51.65,1.94-67.54.23-151.33,3.83-230.95,1.19Zm390.68,183h0c-2.27-2.67-4.18-9.22-5.86-18.22,4,2.88,9.08,4.43,15.67,4.42-3.51,7.17-6.73,12.13-9.81,13.8Zm120-170.46h0c-20,1.68-36.57,14.51-50.46,32.43,10.27-18.89,20.1-33,27.77-35.68,24.73-8.73,73.55-3.86,126.1-21a156.46,156.46,0,0,0,15.24-5.8,47.18,47.18,0,0,0,10.56-2.56c29.08-13,48.65-45.26,60.65-88.51C1038.73,756.3,985.28,780,859.88,790.46Z"/></svg>