<?xml version="1.0" encoding="utf-8"?>
<!-- Generator: Adobe Illustrator 24.0.3, SVG Export Plug-In . SVG Version: 6.00 Build 0)  -->
<svg version="1.1" id="Normal" xmlns="http://www.w3.org/2000/svg" xmlns:xlink="http://www.w3.org/1999/xlink" x="0px" y="0px"
	 viewBox="0 0 311 301.1" style="enable-background:new 0 0 311 301.1;" xml:space="preserve">
<style type="text/css">
	.st0{fill-rule:evenodd;clip-rule:evenodd;fill:#FFFFFF;}
</style>
<path class="st0" d="M281,185.2v47.1c0,21.5-17.4,38.9-38.9,38.9H68.9c-21.5,0-38.9-17.4-38.9-38.9v-47.1c0-8.3-6.8-15-15.1-15h0
	c-8.3,0-14.9,6.7-14.9,15l0,50.6c0,36.1,29.3,65.4,65.4,65.4h180.3c36.1,0,65.4-29.3,65.4-65.4v-50.6c0-8.3-6.7-15-14.9-15h0
	C287.8,170.2,281,176.9,281,185.2z M69.3,101.5c-5.9,5.8-5.9,15.3,0,21.2l75,75c5.8,5.9,15.3,5.9,21.2,0l75-75
	c5.9-5.8,5.9-15.3,0-21.2c-2.9-2.9-6.8-4.4-10.6-4.4s-7.7,1.5-10.6,4.4L171,149.8V15c0-8.3-6.7-15-15-15s-15,6.7-15,15v136.7
	l-50.3-50.3C84.8,95.6,75.3,95.6,69.3,101.5z M241.6,242.7H69.4c-5.5,0-10-4.5-10-10v0c0-5.5,4.5-10,10-10h172.3c5.5,0,10,4.5,10,10
	v0C251.6,238.2,247.2,242.7,241.6,242.7z"/>
</svg>
