<?xml version="1.0" encoding="utf-8"?>
<!-- Generator: Adobe Illustrator 24.0.3, SVG Export Plug-In . SVG Version: 6.00 Build 0)  -->
<svg version="1.1"
	 id="svg4230" xmlns:cc="http://creativecommons.org/ns#" xmlns:dc="http://purl.org/dc/elements/1.1/" xmlns:inkscape="http://www.inkscape.org/namespaces/inkscape" xmlns:rdf="http://www.w3.org/1999/02/22-rdf-syntax-ns#" xmlns:sodipodi="http://sodipodi.sourceforge.net/DTD/sodipodi-0.dtd" xmlns:svg="http://www.w3.org/2000/svg"
	 xmlns="http://www.w3.org/2000/svg" xmlns:xlink="http://www.w3.org/1999/xlink" x="0px" y="0px" viewBox="0 0 17.6 24.3"
	 style="enable-background:new 0 0 17.6 24.3;" xml:space="preserve">
<!-- <style type="text/css">
	.st0{fill:#9DDCF2;}
</style> -->
<path class="st0" d="M17.2,24.4H0.5c-0.3,0-0.5-0.2-0.5-0.5V7c0-0.3,0.2-0.5,0.5-0.5h6C6.8,6.5,7,6.7,7,7S6.8,7.5,6.5,7.5H1v15.9
	h15.7V7.5h-4.9c-0.3,0-0.5-0.2-0.5-0.5s0.2-0.5,0.5-0.5h5.4c0.3,0,0.5,0.2,0.5,0.5v16.9C17.7,24.2,17.5,24.4,17.2,24.4z M5.9,4.4
	l3-3.2l3,3.2c0.2,0.2,0.5,0.2,0.7,0c0.2-0.2,0.2-0.5,0-0.7L9.3,0.1C9.3,0,9.1,0,9,0l0,0C8.8,0,8.7,0,8.6,0.1L5.2,3.7
	C5,3.9,5,4.3,5.2,4.5c0.1,0.1,0.2,0.1,0.3,0.1C5.7,4.6,5.8,4.5,5.9,4.4z M9.3,15.5c0.3,0,0.5-0.2,0.5-0.5L9.6,1.1
	c0-0.3-0.3-0.5-0.5-0.5c-0.3,0-0.5,0.2-0.5,0.5L8.8,15C8.8,15.3,9,15.5,9.3,15.5C9.3,15.5,9.3,15.5,9.3,15.5z"/>
</svg>
