<svg xmlns="http://www.w3.org/2000/svg" width="110.116" height="53.869" viewBox="0 0 110.116 53.869">
  <g id="Logo" transform="translate(-87 -89.115)">
    <path id="Path_1" data-name="Path 1" d="M298.5,192.473a72.222,72.222,0,0,0,7.944-12.451q-1.337-1.631-2.763-3.185-1.3,2.343-2.752,4.584a77.027,77.027,0,0,1-5.489,7.439,72.5,72.5,0,0,0-22.529-16.794,58.515,58.515,0,0,0-19.654-6.106,59.444,59.444,0,0,0-7.4-.46,58.788,58.788,0,0,0-47.6,24.194q-.982,1.342-1.887,2.74.926,1.43,1.932,2.8a59.01,59.01,0,0,0,57.835,23.238,58.457,58.457,0,0,0,14.4-4.51,72.524,72.524,0,0,0,24.873-17.846,76.93,76.93,0,0,1,5.648,7.676q1.4,2.165,2.647,4.427,1.435-1.567,2.782-3.213A72.232,72.232,0,0,0,298.5,192.473Zm-98.557.033a50.588,50.588,0,0,1,42.6-23.262c17.879,0,37.593,10.3,49.732,23.262-12.283,12.747-31.853,23.262-49.732,23.262A50.588,50.588,0,0,1,199.941,192.506Z" transform="translate(-109.37 -76.385)" fill="#9ddcf2"/>
  </g>
</svg>
