<svg id="Layer_1" data-name="Layer 1" xmlns="http://www.w3.org/2000/svg" viewBox="0 0 1920 250"><defs><style>.cls-1{fill:#272823;fill-rule:evenodd;}</style></defs><title>Artboard 1</title><path class="cls-1" d="M1920,29.63a7.91,7.91,0,0,0-.81.19c-6.28,1.87-5.38,15.16-11.74,17.42-6.19,2.19-16.16-1-22.29,1.47s-11,6.29-17,8.81c-6.1,2.61-18.37-2-24.12.58-6.16,2.75-9.17,8.78-14.75,11.34-6.34,2.9-5.07,13.67-10.43,16.09-7,3.16-18.79-.61-23.63,1.23-6.18,2.34-9,9.57-15.43,11.86s-11.43,6.77-17.91,8.91-14,3.12-20.56,5.08S1723,107,1716.3,108.75s-11.85,6.33-18.63,7.78S1682,113,1675.1,114.08s-13.07,2.38-20.07,3.1-12.65,9.71-19.72,10-14-5.6-21.12-5.88-16.68,9-22.81,7.63c-6.53-1.46-7.12-13.3-13-15.54s-17.45,2.18-23-.42-8.91-7.71-14.63-10.16-7.73-11.12-14-12.91c-6.07-1.74-15.62,2.93-22.54,2.3s-13.37,3.33-20.48,3.82c-6.93.48-12.47,2.16-19.43,3.53-6.7,1.31-12.54,2.69-19.2,4.65-6.46,1.91-17.8-3.68-24.16-1.33s-14.34,2.87-20.45,5.46-9.93,8.06-15.84,10.79-7.35,10.49-13.13,13.26c-6,2.89-14,3.55-19.71,6.25-6.17,2.92-12.72,5.09-18.44,7.58-6.05,2.63-9.41,8.81-15,10.51-6.41,2-13.63,4.22-19.68,5.12-6.54,1-14.46-9-21-9s-14,10.4-20.7,9.69c-6.15-.65-11.71-6-18.45-7-6-.93-13.61,1.77-20.35.66-6.51-1.06-10.25-10.61-16.76-11.7s-13.23-1.47-19.74-2.57-16.13,7.34-22.64,6.26-11.28-7.41-17.8-8.45-13.95,1.12-20.49.14-11.66-6.78-18.22-7.67-13.88,1.38-20.47.61-11.67-8.82-18.29-9.47-14.47,5.78-21.13,5.3-12.84-4.42-19.51-4.73-13.46,3-20.19,3-13.15,1.75-19.88,1.88-13.45-3.17-20.16-2.92-13.34.52-20,.82-13,5.11-19.64,5.41-14.21-9.72-20.89-9.47-12.86,9.25-19.53,9.39-13.52-7.87-20.19-7.9-14,11.67-20.69,11.4-13.65-3.1-20.26-3.66-14.45.82-21-.12c-7.23-1-12.23-8.61-18.3-10.26-6.62-1.8-16.18,2.22-22.46.45s-9.14-8.77-16.16-9.72c-6.22-.84-12,2-19.59,2.38-6.57.35-15.32-8.75-21.64-7.61s-9.45,10.24-15.61,11.81-12.71,2.36-18.81,4-13,2.16-19.21,3.41-12,9.14-18.47,9.58c-6.65.45-13.14-13-20.47-14.24-6.83-1.15-18.62,8.74-25.3,7.06-7.17-1.8-13.6-3.75-19.74-5.1-6.62-1.45-10.75-8.67-17.35-10.17s-14.24-.75-20.82-2.29-12.35-4.85-18.91-6.44-14.75.09-21.28-1.55S475.92,95,469.42,93.29s-16.05,2.32-22.52.57c-6.17-1.67-9.56-8.24-15.36-9.94-6.09-1.78-9.94-7.13-15.75-8.83-6.08-1.79-14.43.76-20.33-.8-6.13-1.63-11.26-5.06-17.36-6.3s-12.56-2.46-18.91-3.16-12.86-5-19.43-5A187.92,187.92,0,0,0,319.47,61c-6,.7-11.49,5.8-18,7.24s-9.94,11-16.57,12.38S266.31,70,259.63,71.21s-11.12,8.7-17.86,9.82-13.43,2.56-20.22,3.53S208.72,90,201.89,90.82,187.37,89,180.48,89.53s-14.15-2.18-21.08-1.82S146,97,139.08,97.15,125,92.68,118,92.53s-13.1-7.45-20.06-7.87c-6.56-.39-13.71,12-20.23,12s-13.45-10.6-20-10.27S46,96.69,39.51,97.24,24.67,88.33,18.18,89,6.4,95.42,0,96.23V249.69H1920Z"/></svg>