<svg id="Normal" xmlns="http://www.w3.org/2000/svg" viewBox="0 0 512 512"><defs><style>.cls-1{fill:#fff;fill-rule:evenodd;}</style></defs><title>OK</title><path id="OK" class="cls-1" d="M362,512H150A150,150,0,0,1,0,362V150A150,150,0,0,1,150,0H362A150,150,0,0,1,512,150V362A150,150,0,0,1,362,512ZM256,136a36.77,36.77,0,1,1-36.77,36.77A36.81,36.81,0,0,1,256,136Zm0,125.55a88.8,88.8,0,1,0-88.81-88.78A88.88,88.88,0,0,0,256,261.54ZM291.93,334a166.23,166.23,0,0,0,51.57-21.36,26,26,0,0,0-27.72-44.06,112.75,112.75,0,0,1-119.57,0,26,26,0,0,0-27.72,44.06A166.57,166.57,0,0,0,220.06,334l-49.65,49.65a26,26,0,0,0,36.81,36.8L256,371.65l48.81,48.79a26,26,0,0,0,36.78-36.8L291.93,334Z"/></svg>