<svg width="100" height="100" viewBox="0 0 100 100" fill="none" xmlns="http://www.w3.org/2000/svg">
<path d="M63.3334 63.3335L50 76.6668L36.6667 63.3335" stroke="white" stroke-width="2" stroke-linecap="round" stroke-linejoin="round"/>
<path d="M50 23.3335V66.6668" stroke="white" stroke-width="2" stroke-linecap="round" stroke-linejoin="round"/>
<path d="M58.3333 97.603C70.592 95.4462 81.5446 88.6399 88.9069 78.6038C96.2691 68.5677 99.4726 56.0768 97.849 43.7362C96.2254 31.3956 89.9003 20.1583 80.1927 12.3679C70.4851 4.5776 58.1448 0.835807 45.7454 1.92298C33.3461 3.01016 21.8451 8.84235 13.6414 18.2031C5.43764 27.5639 1.16452 39.7305 1.71326 52.1654C2.26201 64.6002 7.59025 76.3431 16.5867 84.9448C25.5831 93.5466 37.5531 98.343 50 98.3337" stroke="white" stroke-width="2" stroke-linecap="round" stroke-linejoin="round"/>
</svg>
