<?xml version="1.0" encoding="utf-8"?>
<!-- Generator: Adobe Illustrator 24.0.3, SVG Export Plug-In . SVG Version: 6.00 Build 0)  -->
<svg version="1.1" id="Normal" xmlns="http://www.w3.org/2000/svg" xmlns:xlink="http://www.w3.org/1999/xlink" x="0px" y="0px"
	 viewBox="0 0 311 423.1" style="enable-background:new 0 0 311 423.1;" xml:space="preserve">
<style type="text/css">
	.st0{fill-rule:evenodd;clip-rule:evenodd;fill:#FFFFFF;}
</style>
<path class="st0" d="M296,130.1h-82c-8.3,0-15,6.7-15,15s6.7,15,15,15h67v221H30v-221h64c8.3,0,15-6.7,15-15s-6.7-15-15-15H15
	c-8.3,0-15,6.7-15,15v251c0,8.3,6.7,15,15,15h281c8.3,0,15-6.7,15-15v-251C311,136.8,304.3,130.1,296,130.1z M90.7,100.7L141,50.4
	v216.7c0,8.3,6.7,15,15,15s15-6.7,15-15V52.3l48.3,48.3c2.9,2.9,6.8,4.4,10.6,4.4s7.7-1.5,10.6-4.4c5.9-5.9,5.9-15.4,0-21.2l-75-75
	c-5.9-5.9-15.4-5.9-21.2,0l-75,75c-5.9,5.9-5.9,15.4,0,21.2C75.3,106.5,84.8,106.5,90.7,100.7z"/>
</svg>
