<?xml version="1.0" encoding="utf-8"?>
<!-- Generator: Adobe Illustrator 24.0.3, SVG Export Plug-In . SVG Version: 6.00 Build 0)  -->
<svg version="1.1" id="Normal" xmlns="http://www.w3.org/2000/svg" xmlns:xlink="http://www.w3.org/1999/xlink" x="0px" y="0px"
	 viewBox="0 0 512 512" style="enable-background:new 0 0 512 512;" xml:space="preserve">
<style type="text/css">
	.st0{fill-rule:evenodd;clip-rule:evenodd;fill:#FFFFFF;}
</style>
<path class="st0" d="M362,512H150C67.2,512,0,444.8,0,362V150C0,67.2,67.2,0,150,0h212c82.8,0,150,67.2,150,150v212
	C512,444.8,444.8,512,362,512z M396.5,215.5h-82c-8.3,0-15,6.7-15,15s6.7,15,15,15h67v143h-251v-143h64c8.3,0,15-6.7,15-15
	s-6.7-15-15-15h-79c-8.3,0-15,6.7-15,15v173c0,8.3,6.7,15,15,15h281c8.3,0,15-6.7,15-15v-173C411.5,222.2,404.8,215.5,396.5,215.5z
	 M191.2,186.1l50.3-50.3v174.7c0,8.3,6.7,15,15,15s15-6.7,15-15V137.7l48.3,48.3c2.9,2.9,6.8,4.4,10.6,4.4s7.7-1.5,10.6-4.4
	c5.9-5.9,5.9-15.4,0-21.2l-75-75c-5.9-5.9-15.4-5.9-21.2,0l-75,75c-5.9,5.9-5.9,15.4,0,21.2C175.8,191.9,185.3,191.9,191.2,186.1z"
	/>
</svg>
