<?xml version="1.0" encoding="utf-8"?>
<!-- Generator: Adobe Illustrator 24.0.3, SVG Export Plug-In . SVG Version: 6.00 Build 0)  -->
<svg version="1.1" id="Normal" xmlns="http://www.w3.org/2000/svg" xmlns:xlink="http://www.w3.org/1999/xlink" x="0px" y="0px"
	 viewBox="0 0 233 359.1" style="enable-background:new 0 0 233 359.1;" xml:space="preserve">
<style type="text/css">
	.st0{fill:#FFFFFF;}
</style>
<path class="st0" d="M148.4,259.5c-6.4,4.2-11.8,9.6-15.9,16l-50.3-50.3c6.5-4,12.1-9.2,16.5-15.5L148.4,259.5z M133.7,84.2
	l-49.4,49.4c6.3,4.2,11.7,9.7,15.8,16.2l49.8-49.8C143.4,96,137.9,90.6,133.7,84.2z M82.3,193.3c-3.6,6.9-9.6,12.3-16.9,15
	l16.8,16.8c6.5-4,12.1-9.2,16.5-15.5L82.3,193.3z M100,149.9l-16.7,16.7c1.6,3.8,2.5,7.9,2.5,12.2c0,5.2-1.3,10.2-3.5,14.5
	l16.4,16.4c6.1-8.8,9.7-19.4,9.7-30.9C108.4,168.2,105.3,158.2,100,149.9z M84.2,133.7l-16.5,16.5c7,3.3,12.6,9.2,15.6,16.3
	l16.7-16.7C95.9,143.4,90.6,137.9,84.2,133.7z M54.2,210.4c-17.4,0-31.6-14.2-31.6-31.6c0-17.4,14.2-31.6,31.6-31.6
	c4.8,0,9.4,1.1,13.5,3l16.5-16.5c-8.6-5.8-18.9-9.1-30.1-9.1C24.3,124.6,0,148.9,0,178.8C0,208.7,24.3,233,54.2,233
	c10.2,0,19.8-2.9,28-7.8l-16.8-16.8C61.9,209.7,58.1,210.4,54.2,210.4z M178,250.7c-10.9,0-21.1,3.2-29.6,8.8l16.6,16.6
	c4-1.8,8.4-2.8,13-2.8c17.4,0,31.6,14.2,31.6,31.6c0,17.4-14.2,31.6-31.6,31.6c-17.4,0-31.6-14.2-31.6-31.6c0-4.5,1-8.9,2.7-12.8
	l-16.6-16.6c-5.5,8.5-8.7,18.6-8.7,29.4c0,29.9,24.3,54.2,54.2,54.2c29.9,0,54.2-24.3,54.2-54.2C232.2,275,207.9,250.7,178,250.7z
	 M148.4,259.5c-6.4,4.2-11.8,9.6-15.9,16l16.6,16.6c3.1-7.1,8.8-12.8,15.9-16L148.4,259.5z M178.8,0c-29.9,0-54.2,24.3-54.2,54.2
	c0,11.1,3.4,21.4,9.1,30.1l16.5-16.5c-2-4.1-3-8.7-3-13.5c0-17.4,14.2-31.6,31.6-31.6c17.4,0,31.6,14.2,31.6,31.6
	c0,17.4-14.2,31.6-31.6,31.6c-4.3,0-8.5-0.9-12.2-2.5L149.9,100c8.4,5.3,18.3,8.4,28.9,8.4c29.9,0,54.2-24.3,54.2-54.2
	C233,24.3,208.7,0,178.8,0z M150.2,67.7l-16.5,16.5c4.2,6.3,9.7,11.7,16.2,15.8l16.7-16.7C159.4,80.3,153.5,74.7,150.2,67.7z"/>
</svg>
