<svg id="Normal" xmlns="http://www.w3.org/2000/svg" viewBox="0 0 512 512"><defs><style>.cls-1{fill:#fff;fill-rule:evenodd;}</style></defs><title>Viber</title><path id="Viber" class="cls-1" d="M362,512H150A150,150,0,0,1,0,362V150A150,150,0,0,1,150,0H362A150,150,0,0,1,512,150V362A150,150,0,0,1,362,512Zm37.32-402c-9.7-9-48.9-37.41-136.22-37.79,0,0-103-6.21-153.17,39.83-27.95,28-37.78,68.85-38.81,119.55S68.74,377.26,160.33,403h.09l-.06,39.31s-.59,15.92,9.89,19.16c12.68,3.94,20.12-8.16,32.22-21.2,6.65-7.16,15.82-17.67,22.73-25.71,62.64,5.27,110.82-6.78,116.29-8.56,12.65-4.1,84.22-13.27,95.86-108.28C449.36,199.82,431.54,137.87,399.32,110Zm-20.58,19.59c-8.2-7.45-43.6-29.69-117.47-30,0,0-87.46-5.74-129.92,32.72-23.63,23.33-31.6,58-32.47,100.37s-5.39,123.23,72.06,144.75h0s-.31,60.05-.34,65.33c0,3.69.58,6.21,2.69,6.73,1.52.37,3.79-.41,5.72-2.34,12.39-12.44,52-60.27,52-60.27,53.19,3.48,95.52-7,100.07-8.51,10.73-3.46,68.78-8.44,78.61-87.79C419.88,208.71,406,152.87,378.74,129.54ZM298.83,234.07a4.94,4.94,0,0,1-4.93-4.7c-.83-16.78-8.73-25-24.84-25.82a4.94,4.94,0,0,1,.51-9.87c21.28,1.11,33.11,13.29,34.19,35.2a4.93,4.93,0,0,1-4.68,5.18Zm25.34,8.49h-.11a4.94,4.94,0,0,1-4.83-5c.37-16.88-4.46-30.55-14.74-41.79s-24.35-17.33-43-18.69a4.94,4.94,0,0,1,.73-9.85c21,1.54,37.7,8.9,49.59,21.87s17.74,29.4,17.32,48.67A4.93,4.93,0,0,1,324.17,242.56Zm25.94,10.15a4.94,4.94,0,0,1-4.94-4.9c-.23-29.8-9.17-53.51-26.58-70.48s-39.48-25.72-65.5-25.9a4.94,4.94,0,0,1,0-9.87h0c28.67.2,53,9.85,72.34,28.7s29.31,44.94,29.56,77.47a5,5,0,0,1-4.91,5ZM270.3,295.27s6.94.59,10.68-4l7.28-9.17c3.52-4.55,12-7.45,20.31-2.82,6.22,3.55,12.27,7.41,18.1,11.56,5.52,4.06,16.81,13.48,16.84,13.48,5.38,4.54,6.62,11.2,3,18.23,0,0,0,.11,0,.15a76.07,76.07,0,0,1-15.17,18.68c-.07,0-.07.07-.13.1q-7.84,6.55-15.4,7.45a10.6,10.6,0,0,1-2.25.14,20.47,20.47,0,0,1-6.55-1l-.17-.24c-7.76-2.19-20.73-7.67-42.33-19.59a251,251,0,0,1-35.57-23.5,185.58,185.58,0,0,1-16-14.19l-.54-.53-.54-.54h0l-.54-.54-.54-.54a187.28,187.28,0,0,1-14.19-16A252.22,252.22,0,0,1,173,236.82c-11.92-21.61-17.4-34.57-19.59-42.35l-.24-.16a20.27,20.27,0,0,1-1-6.55,9.43,9.43,0,0,1,.13-2.25q.94-7.55,7.46-15.41c0-.07.07-.07.1-.14a76.08,76.08,0,0,1,18.68-15.16l.15,0c7-3.67,13.69-2.42,18.23,2.93,0,0,9.43,11.32,13.47,16.83q6.22,8.78,11.56,18.13c4.63,8.3,1.73,16.8-2.81,20.3L210,220.25c-4.63,3.74-4,10.68-4,10.68S219.56,282.32,270.3,295.27Z"/></svg>