<svg id="Normal" xmlns="http://www.w3.org/2000/svg" viewBox="0 0 512 512"><defs><style>.cls-1{fill:#fff;fill-rule:evenodd;}</style></defs><title>VK</title><path id="VK" class="cls-1" d="M362,512H150A150,150,0,0,1,0,362V150A150,150,0,0,1,150,0H362A150,150,0,0,1,512,150V362A150,150,0,0,1,362,512Zm49.13-148.86H373.9c-13.88,0-18.15-11-43.06-36.29-21.71-21-31.32-23.85-36.66-23.85-7.47,0-9.61,2.14-9.61,12.46v33.09c0,8.9-2.84,14.24-26.33,14.24-38.79,0-81.86-23.49-112.1-67.26-45.56-64.06-58-112.1-58-122.07,0-5.34,2.13-10.32,12.45-10.32h34c9.44,0,13.07,4.29,16.71,14.29,18.52,52.5,49.39,98.57,62.1,98.57,4.73,0,6.91-2.14,6.91-13.93V207.78c-1.46-25-14.9-27.14-14.9-36.07,0-4.28,3.64-8.57,9.45-8.57h58.84c8,0,10.89,4.29,10.89,13.57v72.71c0,7.84,3.57,10.69,5.71,10.69,4.63,0,8.55-2.85,17.11-11.41,26.38-29.59,45.28-75.22,45.28-75.22,2.49-5.35,6.77-10.34,16-10.34h36.72c11.05,0,13.55,5.71,11.05,13.55-4.63,21.39-49.55,84.85-49.55,84.85-3.92,6.42-5.35,9.27,0,16.4,3.92,5.35,16.75,16.4,25.31,26.38,15.69,17.83,27.81,32.8,31,43.14C426.82,357.8,421.47,363.14,411.13,363.14Z"/></svg>