<svg id="Normal" xmlns="http://www.w3.org/2000/svg" viewBox="0 0 512 512"><defs><style>.cls-1{fill:#fff;fill-rule:evenodd;}</style></defs><title>WhatsApp</title><path id="WhatsApp" class="cls-1" d="M386.8,124.44A176.72,176.72,0,0,0,261,72.27c-98,0-177.86,79.79-177.9,177.88a177.58,177.58,0,0,0,23.75,88.93L81.57,431.27l94.31-24.74a177.75,177.75,0,0,0,85,21.65H261c98,0,177.85-79.81,177.89-177.89A176.79,176.79,0,0,0,386.8,124.44M261,398.14h-.06a147.63,147.63,0,0,1-75.25-20.61l-5.4-3.21-56,14.68,14.93-54.56-3.51-5.59a147.53,147.53,0,0,1-22.61-78.69c0-81.52,66.36-147.85,147.92-147.85a147.89,147.89,0,0,1,147.8,148c0,81.53-66.36,147.86-147.86,147.86m81.1-110.74c-4.44-2.23-26.29-13-30.37-14.46s-7-2.23-10,2.22-11.48,14.46-14.07,17.43-5.19,3.34-9.63,1.11-18.77-6.91-35.75-22.06c-13.21-11.79-22.13-26.34-24.73-30.79s-.27-6.86,2-9.07c2-2,4.45-5.19,6.67-7.79s3-4.45,4.44-7.42.75-5.56-.37-7.78-10-24.11-13.7-33c-3.61-8.66-7.27-7.49-10-7.63S200.94,168,198,168a16.32,16.32,0,0,0-11.85,5.56c-4.08,4.45-15.56,15.2-15.56,37.08s15.93,43,18.15,46,31.34,47.86,75.93,67.12A256.62,256.62,0,0,0,290,333.1a60.77,60.77,0,0,0,28,1.76c8.54-1.27,26.3-10.75,30-21.13s3.7-19.29,2.59-21.14-4.07-3-8.52-5.19M362,512H150A150,150,0,0,1,0,362V150A150,150,0,0,1,150,0H362A150,150,0,0,1,512,150V362A150,150,0,0,1,362,512Z"/></svg>